<svg xmlns="http://www.w3.org/2000/svg" viewBox="0 0 362.07 473.15" class="logo"><path d="M317.88,546.08a1.73,1.73,0,0,0-.65-1.44,8,8,0,0,0-2.32-1.08,23.33,23.33,0,0,1-2.7-1.07q-3.42-1.68-3.42-4.62a4.14,4.14,0,0,1,.85-2.58,5.5,5.5,0,0,1,2.41-1.73,9.29,9.29,0,0,1,3.5-.63,8.19,8.19,0,0,1,3.4.68,5.39,5.39,0,0,1,2.34,1.93,5,5,0,0,1,.83,2.85H317.9a2.15,2.15,0,0,0-.66-1.67,2.58,2.58,0,0,0-1.78-.59,2.94,2.94,0,0,0-1.8.5,1.47,1.47,0,0,0,.07,2.5,8.91,8.91,0,0,0,2.55,1.14,15.71,15.71,0,0,1,3,1.26,5,5,0,0,1,2.85,4.53,4.27,4.27,0,0,1-1.74,3.62,7.72,7.72,0,0,1-4.77,1.32,9.52,9.52,0,0,1-3.87-.77,5.89,5.89,0,0,1-2.61-2.1,5.49,5.49,0,0,1-.87-3.07h4.25a2.69,2.69,0,0,0,.73,2.08,3.44,3.44,0,0,0,2.37.67,2.73,2.73,0,0,0,1.66-.45A1.49,1.49,0,0,0,317.88,546.08Z" transform="translate(-239.96 -77.85)" class="text"></path><path d="M338.59,536.45h-5.27v14.31h-4.24V536.45H323.9v-3.28h14.69Z" transform="translate(-239.96 -77.85)" class="text"></path><path d="M349.41,547.47h-5.8l-1,3.29h-4.53l6.45-17.59h4L355,550.76h-4.55Zm-4.79-3.27h3.78l-1.9-6.1Z" transform="translate(-239.96 -77.85)" class="text"></path><path d="M356.77,550.76V533.17h5.66a8.36,8.36,0,0,1,4.19,1.06,7.52,7.52,0,0,1,2.91,3,9,9,0,0,1,1.06,4.32v.81a9.19,9.19,0,0,1-1,4.33,7.56,7.56,0,0,1-2.88,3,8.17,8.17,0,0,1-4.14,1.09ZM361,536.45v11h1.47a3.3,3.3,0,0,0,2.8-1.3,6.32,6.32,0,0,0,1-3.86v-.76a6.25,6.25,0,0,0-1-3.84,3.35,3.35,0,0,0-2.85-1.29Z" transform="translate(-239.96 -77.85)" class="text"></path><path d="M386,536.45h-5.28v14.31h-4.24V536.45h-5.18v-3.28H386Z" transform="translate(-239.96 -77.85)" class="text"></path><path d="M408.94,550.76h-4.22v-7.34h-6.24v7.34h-4.24V533.17h4.24v7h6.24v-7h4.22Z" transform="translate(-239.96 -77.85)" class="text"></path><path d="M422.32,547.47h-5.81l-1,3.29H411l6.45-17.59h4l6.5,17.59h-4.55Zm-4.79-3.27h3.78l-1.9-6.1Z" transform="translate(-239.96 -77.85)" class="text"></path><path d="M444.36,550.76h-4.22l-6.23-10.94v10.94h-4.24V533.17h4.24l6.22,11v-11h4.23Z" transform="translate(-239.96 -77.85)" class="text"></path><path d="M447.54,550.76V533.17h5.66a8.39,8.39,0,0,1,4.19,1.06,7.52,7.52,0,0,1,2.91,3,9.14,9.14,0,0,1,1.05,4.32v.81a9.08,9.08,0,0,1-1,4.33,7.53,7.53,0,0,1-2.87,3,8.2,8.2,0,0,1-4.14,1.09Zm4.23-14.31v11h1.48a3.31,3.31,0,0,0,2.8-1.3,6.38,6.38,0,0,0,1-3.86v-.76a6.32,6.32,0,0,0-1-3.84,3.35,3.35,0,0,0-2.85-1.29Z" transform="translate(-239.96 -77.85)" class="text"></path><path d="M481.75,543.75h-6.84v7h-4.24V533.17h11.77v3.28h-7.53v4h6.84Z" transform="translate(-239.96 -77.85)" class="text"></path><path d="M498.48,533.17v11.51a6.55,6.55,0,0,1-.83,3.39,5.33,5.33,0,0,1-2.39,2.18,8.42,8.42,0,0,1-3.68.75,7.28,7.28,0,0,1-5.06-1.67,6,6,0,0,1-1.89-4.56v-11.6h4.27v11.68c.05,1.93.94,2.89,2.68,2.89a2.56,2.56,0,0,0,2-.73,3.37,3.37,0,0,0,.68-2.35V533.17Z" transform="translate(-239.96 -77.85)" class="text"></path><path d="M510.69,546.08a1.73,1.73,0,0,0-.65-1.44,8,8,0,0,0-2.32-1.08,23.33,23.33,0,0,1-2.7-1.07q-3.42-1.68-3.42-4.62a4.14,4.14,0,0,1,.85-2.58,5.5,5.5,0,0,1,2.41-1.73,9.29,9.29,0,0,1,3.5-.63,8.19,8.19,0,0,1,3.4.68,5.33,5.33,0,0,1,2.34,1.93,5,5,0,0,1,.83,2.85h-4.22a2.15,2.15,0,0,0-.66-1.67,2.58,2.58,0,0,0-1.78-.59,2.94,2.94,0,0,0-1.8.5,1.47,1.47,0,0,0,.07,2.5,8.91,8.91,0,0,0,2.55,1.14,15.71,15.71,0,0,1,3,1.26,5,5,0,0,1,2.85,4.53,4.27,4.27,0,0,1-1.74,3.62,7.7,7.7,0,0,1-4.77,1.32,9.52,9.52,0,0,1-3.87-.77,5.89,5.89,0,0,1-2.61-2.1,5.49,5.49,0,0,1-.87-3.07h4.25a2.69,2.69,0,0,0,.73,2.08,3.44,3.44,0,0,0,2.37.67,2.73,2.73,0,0,0,1.66-.45A1.49,1.49,0,0,0,510.69,546.08Z" transform="translate(-239.96 -77.85)" class="text"></path><path d="M526.67,546.08a1.71,1.71,0,0,0-.66-1.44,8.08,8.08,0,0,0-2.31-1.08,23.33,23.33,0,0,1-2.7-1.07q-3.42-1.68-3.42-4.62a4.14,4.14,0,0,1,.85-2.58,5.5,5.5,0,0,1,2.41-1.73,9.29,9.29,0,0,1,3.5-.63,8.19,8.19,0,0,1,3.4.68,5.39,5.39,0,0,1,2.34,1.93,5,5,0,0,1,.83,2.85h-4.23a2.18,2.18,0,0,0-.65-1.67,2.61,2.61,0,0,0-1.79-.59,2.93,2.93,0,0,0-1.79.5,1.55,1.55,0,0,0-.66,1.28,1.52,1.52,0,0,0,.73,1.22,8.91,8.91,0,0,0,2.55,1.14,15.71,15.71,0,0,1,3,1.26,5,5,0,0,1,2.85,4.53,4.27,4.27,0,0,1-1.74,3.62A7.72,7.72,0,0,1,524.4,551a9.52,9.52,0,0,1-3.87-.77,5.89,5.89,0,0,1-2.61-2.1,5.49,5.49,0,0,1-.87-3.07h4.25a2.69,2.69,0,0,0,.73,2.08,3.44,3.44,0,0,0,2.37.67,2.73,2.73,0,0,0,1.66-.45A1.49,1.49,0,0,0,526.67,546.08Z" transform="translate(-239.96 -77.85)" class="text"></path><path d="M315.5,400l11.85-7.2a.58.58,0,0,0,.68-.38l.1-.3c.16-.47-.47-.75-.82-.54l-12.41,7.55C314.32,399.51,314.92,400.38,315.5,400Z" transform="translate(-239.96 -77.85)" class="hand"></path><path d="M442,352.67c-6.31-.84-13.21-.47-14.87,6.85-2.05,9-1.16,18.74-1.2,27.91a93,93,0,0,1-1.07,15.28,119.11,119.11,0,0,1-3.62,13.64,47.34,47.34,0,0,0-2.36,12.8A36.23,36.23,0,0,0,421.5,442C425,451.4,430.89,462,426,472c-.17.18-.35.34-.53.5-.44-.4-.87-.81-1.28-1.24l2-2c.5-.48-.31-1.17-.8-.69l-2,1.89c-.34-.37-.66-.75-1-1.14a8.45,8.45,0,0,0,1.89-1.93c.39-.55-.41-1.25-.8-.69a8.13,8.13,0,0,1-1.76,1.8c-.38-.48-.76-1-1.13-1.47a21.17,21.17,0,0,0,2.21-1.91c.48-.48-.32-1.17-.8-.69a18.84,18.84,0,0,1-2,1.75l-1.18-1.64a7.48,7.48,0,0,0,2.1-1.82c.42-.53-.38-1.23-.8-.69a6.82,6.82,0,0,1-1.91,1.64l-.85-1.19,0,0c.76-.59,1.5-1.21,2.21-1.87.5-.46-.31-1.15-.8-.69-.65.59-1.32,1.15-2,1.69l-.05,0-.59-.79-.78-1h.07a4.94,4.94,0,0,0,2.11-1.61c.41-.55-.39-1.25-.8-.7a3.94,3.94,0,0,1-1.66,1.31.5.5,0,0,0-.29.28l-.78-1,2.06-2c.49-.47-.31-1.16-.8-.69l-1.9,1.86c-.3-.39-.59-.78-.89-1.16a14.37,14.37,0,0,0,1.85-1.89c.42-.54-.38-1.23-.81-.7a12.64,12.64,0,0,1-1.68,1.75c-.35-.44-.68-.89-1-1.33l-.11-.16a6.69,6.69,0,0,0,2.39-2c.4-.54-.4-1.24-.8-.69a5.68,5.68,0,0,1-2,1.74l-.14.11c-.3-.45-.62-.95-1-1.42a3.47,3.47,0,0,0,1-1.09.53.53,0,0,0-.24-.71.54.54,0,0,0-.71.24,2.24,2.24,0,0,1-.41.51.53.53,0,0,0-.65-.1,2.84,2.84,0,0,0-1.42-.78c-.67-.11-.88.93-.21,1,1.06.17,2.48,2.68,3.11,3.5.85,1.08,1.69,2.17,2.52,3.26q2.67,3.46,5.29,7c1.27,1.69,2.48,3.43,3.79,5.09a.58.58,0,0,0,.18.23,26,26,0,0,0,5.8,5.61c.56.37,1.25-.42.69-.8a19,19,0,0,1-1.68-1.27l.23-.21a.51.51,0,0,0,.33-.27l.05-.11a13.21,13.21,0,0,0,1.22-1.47.59.59,0,0,0-.24-.85c2-5.89.81-12.32-1.24-18.14-3.1-8.8-7.68-16.89-6.46-26.55,1.1-8.71,5-16.76,6.11-25.51s.51-17.56.65-26.33c0-2.86.16-5.73.44-8.58.24-2.43.38-5.29,1.43-7.54,2.31-4.94,8.43-4.49,13-3.89C442.42,353.8,442.63,352.76,442,352.67Z" transform="translate(-239.96 -77.85)" class="hand"></path><path d="M375.63,333.09c1.14-.57,2.27-1.17,3.38-1.78,2.32-1.28,4.58-2.66,6.8-4.12l0,0c.42.25.77-.16.73-.55l1.06-.71c1.71-1.16,3.38-2.37,5-3.62a.52.52,0,0,0,.41-.31c3.27-2.46,6.44-5.06,9.55-7.71,2.36-2,4.68-4.07,7-6.13.37-.33.77-.66,1.16-1a.57.57,0,0,0,.57-.47,20.33,20.33,0,0,0,4.19-4.2c1.56-2.37.32-6.92-3.15-5.3-1.92.9-3.19,3.66-4.49,5.22a69.26,69.26,0,0,1-7.07,7.16c-5.19,4.66-10.57,9.12-15.87,13.67-3.76,3.22-7.49,6.49-11.35,9.59l-.84.41c-.72.33-2.61,1.08-2.52,2.2-.37.27-.73.55-1.11.82-5.2,3.82-11,6.75-16.11,10.67-5.65,4.32-10.56,9.22-16.81,12.73a64.25,64.25,0,0,1-21.86,7.44c-.67.1-.6,1.16.08,1.05a65.26,65.26,0,0,0,32.76-14.91A126.08,126.08,0,0,1,363,341.76c2.71-1.69,5.32-3.5,7.86-5.41a1.29,1.29,0,0,0,1.53-.6.47.47,0,0,0,0-.52l1.81-1.42Zm9.58-8.28a.54.54,0,0,0-.13-.21l1.39-1.19.09.06a1.32,1.32,0,0,1,.87,1.17.66.66,0,0,0,.05.15l-1.63,1.1A2.82,2.82,0,0,1,385.21,324.81Zm3.5-3.33L390,323l0,0-1.59,1.13a2.43,2.43,0,0,0-1.09-1.47Zm2.15.91h0l-1.34-1.59,1.28-1.09v.06a7.3,7.3,0,0,0,1.06,1.89l-.3.23Zm1.69-4.21a7.15,7.15,0,0,0,1.33,1.93c-.39.31-.79.61-1.19.91a6.11,6.11,0,0,1-.9-1.62.48.48,0,0,0-.31-.3Zm1.88-1.62a7.07,7.07,0,0,1,1.49,1.95l-1.2.95a6,6,0,0,1-1.25-1.78.35.35,0,0,0-.13-.18Zm1.92-1.64,1.34,2.16-.94.76a8.53,8.53,0,0,0-1.51-2Zm2.09-1.66,1.39,2.06-1.31,1.09-1.32-2.12a.08.08,0,0,0-.05-.05l1.25-1.07S398.42,313.23,398.44,313.26Zm7.42-3.12a7.88,7.88,0,0,0-.77-1.73c-.34-.59-1.22,0-.87.6a6.81,6.81,0,0,1,.76,1.9l-.9.78a10.59,10.59,0,0,0-1.7-2c1.52-1.4,3-2.83,4.41-4.34a.25.25,0,0,0,0,.11c.51.84,1,1.68,1.55,2.52l-1,.82-1.19-1.87c-.36-.57-1.24,0-.87.6l1.25,2h0Zm4.5-9.3a18.38,18.38,0,0,0,1.46,3.56.42.42,0,0,0,.36.24l-1.24,1.12a30.89,30.89,0,0,1-1.59-3.21.34.34,0,0,0-.09-.12C409.63,301.91,410,301.36,410.36,300.84Zm4.8-1.68c.6,1,0,2.13-.64,3a9,9,0,0,1-1.74-3.57.42.42,0,0,0-.31-.33C413.14,297.52,414,297.17,415.16,299.16Zm-3.33-.07a9.61,9.61,0,0,0,1.86,3.74.58.58,0,0,0,.15.13l0,0c-.34.37-.69.73-1.05,1.09a.61.61,0,0,0-.07-.28,16.8,16.8,0,0,1-1.39-3.5A.48.48,0,0,0,411,300c.11-.12.23-.24.35-.35A5.89,5.89,0,0,0,411.83,299.09Zm-3.28,4.26a32.58,32.58,0,0,0,1.58,3.12l-.93.8-1.5-2.43a.45.45,0,0,0-.27-.21C407.81,304.21,408.18,303.78,408.55,303.35Zm-7,7a9.5,9.5,0,0,1,1.68,2l-.83.72a.66.66,0,0,0-.12-.17,2.2,2.2,0,0,1-.72-1.36c-.09-.67-1.14-.6-1.05.08a3.37,3.37,0,0,0,1.07,2.08l.05,0-1,.87-1.33-2a.43.43,0,0,0-.15-.15Q400.39,311.46,401.59,310.38ZM378.78,330q2.75-2.34,5.48-4.69a3.45,3.45,0,0,0,.71,1.18c-2.29,1.49-4.62,2.89-7,4.2Z" transform="translate(-239.96 -77.85)" class="hand"></path><path d="M382,377.63c4.29-6,6.67-13,10.61-19.18,4.65-7.28,11.83-13,18-18.91,6.45-6.2,12.81-12.54,19.56-18.4a66.82,66.82,0,0,1,9.54-7.39,12.28,12.28,0,0,1,7.24-2c2.2.19,4.06,1.3,6.08,2.06,7.61,2.9,15.27-1.2,21.75-5,.59-.35,0-1.22-.6-.88-3.66,2.14-7.44,4.28-11.59,5.29a15.85,15.85,0,0,1-6.71.31c-2.21-.41-4.11-1.55-6.2-2.28-7-2.43-13.24,3.2-18.21,7.38-6.34,5.34-12.26,11.17-18.23,16.91C407,341.61,400,347.4,394.4,354.18s-8,15.61-13.18,22.76C380.82,377.49,381.62,378.19,382,377.63Z" transform="translate(-239.96 -77.85)" class="hand"></path><polygon points="252.98 282.89 252.98 282.89 252.98 282.89 252.98 282.89 252.98 282.89 252.98 282.89" class="hand"></polygon><path d="M492.93,360.74h0c.63,0,.81-.94.15-1a1.13,1.13,0,0,0-.87,2,.53.53,0,1,0,.69-.8h0s0,0,0,0,0-.07.05-.1S492.9,360.76,492.93,360.74Zm0,0Z" transform="translate(-239.96 -77.85)" class="hand"></path><path d="M497.88,359.18v0a.51.51,0,0,0,.22.11.75.75,0,0,0,.83-1c-.29-.68-1.15-.5-1.58-.09a2.29,2.29,0,0,0,0,3.27c.49.48,1.18-.33.69-.8a1.17,1.17,0,0,1-.34-1A1.1,1.1,0,0,1,497.88,359.18Z" transform="translate(-239.96 -77.85)" class="hand"></path><path d="M502.52,356.8a.53.53,0,0,0-.95-.46,1.31,1.31,0,0,0,2.28,1.22.53.53,0,0,0-.93-.5h0l-.13,0c.09,0-.09,0-.11-.06s-.07-.06-.09-.07,0,0-.05-.08h0Zm.38.29Z" transform="translate(-239.96 -77.85)" class="hand"></path><path d="M504.52,356.18l2.57-1.25c.6-.29.26-1.3-.36-1l-2.56,1.25C503.56,355.47,503.91,356.48,504.52,356.18Z" transform="translate(-239.96 -77.85)" class="hand"></path><path d="M512,353.16l-1.13-1a.53.53,0,0,0-.69.8l1.13,1A.53.53,0,0,0,512,353.16Z" transform="translate(-239.96 -77.85)" class="hand"></path><path d="M513.34,351.74l2-1.74c.51-.44-.08-1.32-.59-.87l-2,1.74C512.23,351.31,512.82,352.19,513.34,351.74Z" transform="translate(-239.96 -77.85)" class="hand"></path><path d="M442.7,259.77c4.68-4.38,11.22-.87,16.24.83l1,.32a.56.56,0,0,0,.53.17c1.43.45,2.87.84,4.33,1.18a.57.57,0,0,0,.37.09c.61.14,1.23.27,1.85.39,1.36.26,2.7.67,3.58-.62,1.43-2.11-.25-5.2-2.59-5.69s-5.06.58-7.36.69c-3.08.13-7,.56-9.85-.78a.53.53,0,0,0-.74.38,9.54,9.54,0,0,0-8.17,2.34C441.4,259.54,442.21,260.23,442.7,259.77Zm16-1.2-.07-.06Zm.08.76a.31.31,0,0,0,.09-.11.5.5,0,0,0-.12-.6.57.57,0,0,0,.13-.27l.89-.06s0,0,0,.08a6.21,6.21,0,0,0-.07,1.29Zm11.12.16c.32,1.09.06,1.7-.53,2a10.48,10.48,0,0,1,.13-2.85A3.05,3.05,0,0,1,469.92,259.49ZM468.75,258a.47.47,0,0,0-.24.34,11.34,11.34,0,0,0-.17,3.34.5.5,0,0,0,0,.13,6.47,6.47,0,0,1-1.07,0,.49.49,0,0,0,.13-.4,13.77,13.77,0,0,1,0-2.87c.07-.67-1-.88-1-.2a15.69,15.69,0,0,0,0,3.14.65.65,0,0,0,.07.21l-.75-.15c0-1.13,0-2.25.07-3.38,0-.68-1-.6-1.06.08l-.06,3-.33-.09a.6.6,0,0,0,.07-.27,12.91,12.91,0,0,0-.39-3C465.62,257.53,467.51,257.22,468.75,258ZM463,258v.08a11.58,11.58,0,0,1,.35,2.75l-.62-.18-.36-.1a.76.76,0,0,0,.06-.27c0-.59,0-1.18.07-1.77a.48.48,0,0,0-.26-.42h0Zm-1.35.14a.61.61,0,0,0-.2.45c0,.55-.05,1.1-.07,1.65l-.59-.19a5.57,5.57,0,0,1,0-1.47.54.54,0,0,0-.08-.36Zm-3.9.26a1,1,0,0,0,0,.54l-1.44-.53C456.79,258.42,457.26,258.41,457.73,258.4Z" transform="translate(-239.96 -77.85)" class="hand"></path><path d="M440,148.5c-.66.14-.3,1.14.35,1,3.1-.66,6.37.67,9.38,1.26,2.25.45,4.52.81,6.8,1.1a103.66,103.66,0,0,0,13.87.78.5.5,0,0,0,.4-.77.45.45,0,0,0,0-.43c-.19-.5-.36-1.11-.56-1.73a.48.48,0,0,0,.45.22.53.53,0,0,0-.08-1.06.49.49,0,0,0-.47.54c-.46-1.39-1.1-2.79-2.4-3.22-2.47-.81-6.13-.18-8.66.13a26.39,26.39,0,0,1-4.69.42,18.87,18.87,0,0,1-4.93-1.34,15.26,15.26,0,0,0-8.7-.34c-.66.16-.3,1.16.35,1,3.51-.85,6.32-.18,9.65.94a12.71,12.71,0,0,0,5.36.77c2.41-.19,4.77-.65,7.21-.7,1.58,0,3.83-.28,5,1.06a11.8,11.8,0,0,1,1.37,3.45,100.42,100.42,0,0,1-16-1.17C449.41,149.72,444.44,147.56,440,148.5Z" transform="translate(-239.96 -77.85)" class="hand"></path><path d="M335.75,207.43l3,7.95a.53.53,0,0,0,1-.36l-3-7.94A.53.53,0,0,0,335.75,207.43Z" transform="translate(-239.96 -77.85)" class="hand"></path><path d="M264.14,248.4c.53-.42-.07-1.3-.6-.87l-8.6,6.89c-.53.43.07,1.3.6.88Z" transform="translate(-239.96 -77.85)" class="hand"></path><path d="M337.26,283.29c.2.65,1.2.29,1-.36a7.69,7.69,0,0,1,.06-5c.23-.63-.72-1.11-.95-.46A8.9,8.9,0,0,0,337.26,283.29Z" transform="translate(-239.96 -77.85)" class="hand"></path><path d="M303.26,316.89a159.12,159.12,0,0,1,5.62,25.64c.09.67,1.15.6,1.06-.08a161.75,161.75,0,0,0-5.68-25.92C304.06,315.88,303.06,316.23,303.26,316.89Z" transform="translate(-239.96 -77.85)" class="hand"></path><path d="M369.29,135.31a.5.5,0,0,0,.45.25c4.38-.12,8.75-.38,13.11-.81,4.08-.41,9.34-2.06,13.28-.53h.08a.42.42,0,0,0,.56,0c2-1.69.72-4-1.28-5a9.89,9.89,0,0,0-2.83-.87.7.7,0,0,0-.29,0c-3.07-.42-6.43.17-9.39,0-4-.28-8.52-.69-12.22,1.22-2.23,1.15-3.68,3.72-1.57,5.72A.53.53,0,0,0,369.29,135.31Zm1.89-4.54-.06-.14a12.1,12.1,0,0,1,1.32-.53c.21.57.41,1.14.61,1.71.12.37.25.73.38,1.1l.49,1.16a.66.66,0,0,0-.06.27l-1.34,0C372.07,133.19,371.65,132,371.18,130.77Zm5.19,3.42-1.4.08a5.24,5.24,0,0,0-.61-1.9c-.3-.85-.57-1.72-.89-2.57.46-.13.92-.24,1.33-.32a41.65,41.65,0,0,0,1.56,4.61A.34.34,0,0,0,376.37,134.19Zm4.45-.32-1,.07a.53.53,0,0,0-.18-.42l0,0s-.05,0-.07,0a6.67,6.67,0,0,1-.27-.91c-.15-.44-.29-.89-.42-1.34-.21-.69-.38-1.38-.55-2.08l1.2,0A36.48,36.48,0,0,0,380.82,133.87Zm1.11-.11a.73.73,0,0,0-.17-.41,32.51,32.51,0,0,1-1.15-4.14l1.67.11a28,28,0,0,0,1.1,4.3Zm4-3.1a6.76,6.76,0,0,0-.18-1.17h1a11.52,11.52,0,0,0,.84,3.61l-.79.12A10.92,10.92,0,0,1,385.94,130.66Zm4.29,1.57h0s0,0,0,.06Zm3.33-.15a4.51,4.51,0,0,1-.54-2.45c.36.1.76.22,1.17.36.12.9.19,1.81.23,2.72-.28,0-.55-.07-.83-.09A.47.47,0,0,0,393.56,132.08Zm2.78,1.1a7.18,7.18,0,0,0-.87-.26.59.59,0,0,0,0-.13c0-.78-.1-1.56-.18-2.34C396.62,131.1,397.52,132,396.34,133.18ZM392,129.4a6.39,6.39,0,0,0,.67,3.18c-.47,0-.94,0-1.41,0a1.16,1.16,0,0,0,.08-.42.45.45,0,0,0-.45-.47,8.26,8.26,0,0,1-.35-1.26c-.1-.38-.21-.77-.32-1.15a12.17,12.17,0,0,1,1.6,0Zm-2.86,0,.54,2a3.34,3.34,0,0,0,.62,1.38c-.53.06-1.07.13-1.6.21a10.76,10.76,0,0,1-.85-3.48l.54,0Zm-4.58.07a.41.41,0,0,0,.2.35c.15.1.14.76.18.93s.11.57.18.85a11.21,11.21,0,0,0,.64,1.79l-.85.1-.36,0,0-.55a.41.41,0,0,0-.4-.46,25.19,25.19,0,0,1-.76-3.11l.29,0Zm-8-.24.75,0c.23,1,.48,2,.79,3a8.92,8.92,0,0,0,.65,1.88l-1.17.09a38.8,38.8,0,0,1-1.67-4.83Zm-6.3,1.91c.25.53.41,1.16.6,1.67l.61,1.65-1.5.05s0,0,0,0C368.41,133.05,368.94,132,370.2,131.12Z" transform="translate(-239.96 -77.85)" class="hand"></path><path d="M349.53,328.71l1.37,1.1c.53.43,1.22-.37.69-.8l-1.37-1.1C349.69,327.48,349,328.28,349.53,328.71Z" transform="translate(-239.96 -77.85)" class="hand"></path><path d="M351.09,328.08l1.36-.81c.58-.34,0-1.22-.6-.87l-1.36.81C349.91,327.55,350.51,328.43,351.09,328.08Z" transform="translate(-239.96 -77.85)" class="hand"></path><path d="M354.55,325.54a.54.54,0,0,0-.13.74l.8,1a.53.53,0,1,0,.87-.6l-.8-1A.55.55,0,0,0,354.55,325.54Z" transform="translate(-239.96 -77.85)" class="hand"></path><path d="M355.87,325.61l1-.78c.54-.42-.05-1.29-.59-.87l-1,.78C354.73,325.15,355.33,326,355.87,325.61Z" transform="translate(-239.96 -77.85)" class="hand"></path><path d="M363.21,321.85a.53.53,0,0,0-.73-.13l-1.37.79a.46.46,0,0,0-.21.33l-.54,0a.53.53,0,0,0,.08,1.06l1.41-.1a.53.53,0,0,0,.41-.78l.81-.47A.53.53,0,0,0,363.21,321.85Z" transform="translate(-239.96 -77.85)" class="hand"></path><path d="M367.73,320.87c.64.22,1.11-.73.47-.95a5.29,5.29,0,0,0-2.76-.23c-.66.13-.59,1.19.08,1.06A4.15,4.15,0,0,1,367.73,320.87Z" transform="translate(-239.96 -77.85)" class="hand"></path><path d="M276.88,258.11l-2.14-.21c-.68-.07-.89,1-.21,1l2.14.2C277.34,259.21,277.55,258.17,276.88,258.11Z" transform="translate(-239.96 -77.85)" class="hand"></path><path d="M280.43,255.44l-3.9-.11c-.68,0-.6,1,.07,1.06l3.9.11C281.18,256.51,281.1,255.46,280.43,255.44Z" transform="translate(-239.96 -77.85)" class="hand"></path><path d="M282.54,253.54l-3.91-.95c-.66-.17-.87.87-.21,1l3.91,1C283,254.74,283.2,253.7,282.54,253.54Z" transform="translate(-239.96 -77.85)" class="hand"></path><path d="M316.75,117.08l1.05,2.47c.27.62,1.27.27,1-.36l-1.05-2.47C317.48,116.1,316.48,116.45,316.75,117.08Z" transform="translate(-239.96 -77.85)" class="hand"></path><path d="M322.81,116.52a1.42,1.42,0,0,0-1.55-.36.55.55,0,0,0-.26.8c.54,1,1.07,2,1.6,3,.32.61,1.19,0,.88-.59l-1-1.92A.58.58,0,0,0,322.81,116.52Z" transform="translate(-239.96 -77.85)" class="hand"></path><path d="M448.33,138.8l-1.76.13a.47.47,0,0,0-.44.33l-.18-.18a.52.52,0,0,0-.74,0,.54.54,0,0,0,.05.75c.45.48.91,1,1.36,1.45a.53.53,0,0,0,.69-.8l-.52-.56,1.61-.11A.53.53,0,0,0,448.33,138.8Z" transform="translate(-239.96 -77.85)" class="hand"></path><path d="M453.81,139.11c.64-.21.29-1.21-.36-1l-1.38.46a.45.45,0,0,0-.33.41.55.55,0,0,0-.65.79l.41.68c.35.58,1.22,0,.87-.6l-.16-.26a.5.5,0,0,0,.21,0Z" transform="translate(-239.96 -77.85)" class="hand"></path><path d="M457.26,139.93a.52.52,0,0,0,.38-.21,1,1,0,0,1,.86-.24.53.53,0,0,0,.21-1,2.09,2.09,0,0,0-1.71.44l-.87.07a.53.53,0,0,0,.07,1.05Z" transform="translate(-239.96 -77.85)" class="hand"></path><path d="M439.92,253a7.45,7.45,0,0,1-1-2.56c-.12-.66-1.18-.6-1.06.07a8.77,8.77,0,0,0,1.2,3.09C439.41,254.2,440.29,253.6,439.92,253Z" transform="translate(-239.96 -77.85)" class="hand"></path><path d="M444.13,251.69c.6.32,1.06-.63.47-.95a4.44,4.44,0,0,1-2-2.1c-.28-.62-1.28-.27-1,.35A5.59,5.59,0,0,0,444.13,251.69Z" transform="translate(-239.96 -77.85)" class="hand"></path><path d="M449.18,252.3c.63.22,1.11-.72.46-1a3.74,3.74,0,0,1-2.46-2.67c-.17-.66-1.16-.31-1,.35A4.7,4.7,0,0,0,449.18,252.3Z" transform="translate(-239.96 -77.85)" class="hand"></path><path d="M602,306.56a20.08,20.08,0,0,0-3.23-12.07l0-.13a.49.49,0,0,0-.51-.6,25.28,25.28,0,0,0-4.44-5.06c-4.35-3.76-10-3.74-15.47-3.35a59.21,59.21,0,0,0-17.21,3.87c-11.17,4.35-19.88,12.06-27,21.59-8.1,10.87-14.54,24.58-25.82,32.61-5.17,3.68-11.31,5.51-17.51,6.56v0q-1.93-4.54-3.65-9.18c.42-.14.62-.77.11-.95l-.54-.21A213.77,213.77,0,0,1,475.05,290c-2.34-20.93-.67-41.76.56-62.7,1.26-21.42,0-42.55-1.63-63.91q-1.26-16.26-2.62-32.51c-.72-8.61-.56-18.6-5.44-26.12C462.2,99.07,454.64,95,448,98.2c-5.74,2.8-8,9.58-9,15.45-1.56,9.2-1.36,18.9-1.37,28.21,0,10.47.31,20.94.38,31.41a307.46,307.46,0,0,1-1.15,32.12c-1,10.18-3.52,20.13-4.53,30.29a75.9,75.9,0,0,0,.09,13.65c.36,4.46.21,10.52-5.14,11.82-4.21,1-8.69-1.57-10.82-5.14-2.58-4.32-2.7-9.61-2.85-14.49-1.33-43.37-8.14-86.26-15.08-129-1.41-8.65-2.89-17.78-8.09-25.08-4-5.6-10.33-10.06-17.47-9.54-6.45.48-12.23,4.74-13.21,11.34-.67,4.55.46,9.24,1.14,13.71q1.22,8.06,2.31,16.13a1065.83,1065.83,0,0,1,9.54,129.34q0,3.93.07,7.88c0,1.21.07,2.46,0,3.68a7.94,7.94,0,0,1-.25,1.74c-.06,1.14-.66,1.49-1.79,1-1,.42-1.53.21-1.53-.64-.53-.83-.49-2.65-.66-3.66-.22-1.36-.45-2.72-.68-4.08-.46-2.71-.93-5.43-1.42-8.14q-2.78-15.27-6.7-30.31c-5.36-20.61-12.1-40.82-18.82-61l-10-30c-.82-2.45-1.61-4.92-2.45-7.37a12,12,0,0,0-2.15-4.27c-2.31-2.52-6.31-1.92-9.36-1.61-6.66.68-14.11,3.16-16.52,10.07-1.28,3.67-.86,7.65-.13,11.39.89,4.6,2.1,9.14,3.18,13.7q7.51,31.75,15,63.52,3.75,15.88,7.52,31.77c2.54,10.75,5.18,21.53,6.16,32.56a75.26,75.26,0,0,1,.19,14.16c-1.1,1.92-2.39,5-1.94,7.27a6.31,6.31,0,0,1-4.88,3.53l-.09,0a.49.49,0,0,0-.53-.42l-.06,0a.46.46,0,0,0-.15-.27c-11.22-9.93-16.76-24.14-24.64-36.53a81.51,81.51,0,0,0-14.38-16.68,49.76,49.76,0,0,1-8.76-10c-2.24-3.53-4.08-7.29-6.22-10.88-3.37-5.61-8-11.39-14.6-13.16-5.11-1.36-11.34-.06-14.39,4.56-3.56,5.41-1.33,12.34,1,17.83l-.28.2c-.56.4,0,1.28.59.88l.12-.09q2.33,5.31,4.78,10.57a.52.52,0,0,0,.4.86c1.82,3.85,3.71,7.66,5.72,11.41.44.82.88,1.62,1.34,2.43l-.36.36c-.46.51.34,1.2.8.7l.1-.1.88,1.5a.59.59,0,0,0,.35.59,165.36,165.36,0,0,0,11.26,16.31c5.62,7.25,10.66,14.53,14.17,23,3.43,8.3,6.09,17,8.7,25.56,1.26,4.14,2.26,8.31,3.18,12.5h0c1,4.64,1.92,9.3,2.93,14a59.85,59.85,0,0,0,3.93,12.56c1.73,3.72,4,7.16,5.85,10.82,4,7.9,4.9,16.77,7,25.23.69,2.74,1.49,5.43,2.36,8.08a.55.55,0,0,0,.29.91c4.43,13.14,10.95,25.21,18.7,36.88,5,7.49,8.77,15.36,12.78,23.38a58.35,58.35,0,0,0,8.93,13.67l0,0c-.53.42.06,1.29.6.87l.16-.13a32.64,32.64,0,0,0,3,2.73,25.36,25.36,0,0,0,4.43,2.83.62.62,0,0,0,.6.29,24.39,24.39,0,0,0,12.15,2.09.5.5,0,0,0,.79,0l.09-.1a43,43,0,0,0,7.93-1.59.44.44,0,0,0,.65.06l.48-.4c5.78-1.81,11.5-4.5,16.87-6.79l11.09-4.75a.53.53,0,0,0,.9-.38l.58-.25c.63-.27.28-1.27-.35-1L417,480a26.58,26.58,0,0,0-3.67-10.79.56.56,0,0,0-.42-.68,30.15,30.15,0,0,0-6.63-7.32.55.55,0,0,0-.45-.35,33.94,33.94,0,0,0-3.48-2.32,39,39,0,0,0-14-4.64c-3.2-.44-6.52-.38-9.62-1a.44.44,0,0,0-.43-.09,13,13,0,0,1-5.87-2.89c-5.25-4.66-6.54-11.38-7.76-18.09a.67.67,0,0,0-.06-.28c-.25-1.41-.51-2.82-.8-4.21a.55.55,0,0,0-.19-.9,39.11,39.11,0,0,0-1.61-5.49,23,23,0,0,0-1.05-2.3.55.55,0,0,0-.41-.75c-3.88-6.72-10.75-10.59-17.08-15l-.13-.1c-.77-.53-1.53-1.08-2.27-1.64-5.33-4-10.12-8.71-15.49-12.68A188.52,188.52,0,0,0,309,377.89a.45.45,0,0,0-.62.13l-.12-.25c-1.75-3.51-3.92-6.79-5.61-10.33-3.74-7.81-4.73-16.52-6.46-24.9l-.21-1c6.16,1.78,13,3.15,19.33,2.34a.59.59,0,0,0,.47-.06c.49-.07,1-.16,1.46-.26.19.41.82.23.93-.21a20.88,20.88,0,0,0,5.12-2,.53.53,0,0,0,.81-.47,19.72,19.72,0,0,0,3.94-3.17,78.38,78.38,0,0,1,6.81-6.83,58.71,58.71,0,0,1,8.12-5.4q2.88-1.62,5.79-3.18l.07.19c.22.66,1.17.3,1-.35l-.1-.36,4.55-2.39a.54.54,0,0,0,.79-.4q3.23-1.67,6.47-3.29l.32-.16a.57.57,0,0,0,.62-.31l1.1-.54a.57.57,0,0,0,.8-.4c2.52-1.22,5.05-2.41,7.61-3.54l.06.17a.53.53,0,0,0,1-.36,2.25,2.25,0,0,1-.08-.24l1-.45a.53.53,0,0,0,.93-.39c1.07-.45,2.14-.89,3.22-1.32a.53.53,0,0,0,.89-.34l1.73-.67a33.42,33.42,0,0,0,5-2.2l.13.06a.54.54,0,0,0,.77-.51v-.1a11.27,11.27,0,0,0,3.08-3,.62.62,0,0,0,.33-.51,12.22,12.22,0,0,0,1.2-2.73c1-3.17,2.75-9.3-.95-11.38-4.75-2.67-11.49,1.06-15.95,2.62l-.81.28a.54.54,0,0,0-.92.31c-6.67,2.25-13.49,4.06-20.31,5.78A62.53,62.53,0,0,1,339.59,298c-2.27.08-6.67.59-7.77-2.1a22.13,22.13,0,0,0,1.63-6.72,1.4,1.4,0,0,1,.1-.16.49.49,0,0,0,.74-.35c.31-2.28,2.45-3.2,4.24-4.19a52.7,52.7,0,0,0,4.62-2.91l1-.71.25.18c.51.31.93-.39.63-.8l1.2-.82c.35.42,1.17.09.92-.48a1.17,1.17,0,0,0,0-.11c.48-.32,1-.63,1.45-.93l.05.13c.27.62,1.27.27,1-.36l-.14-.33c.37-.22.74-.43,1.12-.63a.59.59,0,0,1,0,.14c.1.67,1.16.6,1.06-.08,0-.2-.06-.39-.1-.59.68-.35,1.38-.68,2.1-1l.21,0a.5.5,0,0,0,.23-.17q.69-.31,1.35-.66a.58.58,0,0,0,.44-.25,36.29,36.29,0,0,0,3.93-2.68.58.58,0,0,0,.61-.46c.58-.44,1.18-.88,1.79-1.31a.44.44,0,0,0,.16-.06.57.57,0,0,0,.13-.14l.47-.33,1.08-.71a.15.15,0,0,1,0,.07.55.55,0,0,0,.42.62.52.52,0,0,0,.62-.41,2.38,2.38,0,0,0,0-1c1.43-1.05,2.53-2.31,2.27-4.4a.53.53,0,0,0-.7-.46c-5.27,2.25-9.06,6.78-14.3,9.16a62.2,62.2,0,0,1-7.91,3c-.22.07-.44.12-.65.17l0-.07c-.25-.59-1.16-.3-1,.27-3.11.46-5.65-.5-8.51-2.24-.58-.35-1,.6-.46.95l.83.5a37.86,37.86,0,0,0-.54,11.92h0a4.28,4.28,0,0,0-.43.75c0-.45,0-.88.06-1.3.38-10.26-1.26-20.47-3.4-30.48-4.46-20.88-9.76-41.62-14.67-62.4l-5.82-24.58a.46.46,0,0,0,.39-.41c0-.3.63-.67.84-.85l.79-.72h0A6.75,6.75,0,0,1,314,166a.47.47,0,0,0,.26.14l.24,0A.58.58,0,0,0,315,166a9.87,9.87,0,0,0,3.19-.47,8.51,8.51,0,0,0,3.29-3c1.93-2.37,3.78-2.17,6.58-2.23a31.2,31.2,0,0,0,4.74-.47h0c.25.44.81.21.93-.19.63-.12,1.25-.26,1.88-.42a.56.56,0,0,0,.68-.22c1.12-1.74.24-3.56-1.19-4.87-1.78-1.65-4.17-.32-6.33-.3a45.19,45.19,0,0,0-9.65.63c-1.89.41-3.57,1.36-5.42,1.86-2.53.67-4.84-.38-7-1.6a.43.43,0,0,0-.23-.07l-2.07-8.74c-1.21-5.1-2.73-10.23-3.43-15.43-.63-4.62-.16-9.51,3.35-12.92,3.15-3.08,7.74-4.28,12-4.8a23,23,0,0,1,6.3-.25c3.36.58,4.27,3.5,5.21,6.33q2.47,7.36,4.92,14.74c6.68,20.08,13.57,40.1,19.71,60.36q1.83,6,3.51,12.11a6.24,6.24,0,0,0-2.28-.91.51.51,0,0,0-.7-.09,22,22,0,0,0-5.45.56c-4.24.73-7.91-1.69-12.09-.94a11.68,11.68,0,0,0-6.41,3.44.56.56,0,0,0-.6.7h0c-.07.1-.16.19-.24.3-2.17,3-2.27,6.82-4.06,10-.17.11-.34.22-.5.34a.52.52,0,0,0-.06.8c.06.42.6.73.9.3a7,7,0,0,0,.43-.68c2.94-1.84,6.22-2.28,9.59-2.38l.05.13a.54.54,0,0,0,1-.16c2.47,0,5,.05,7.41-.17l.27.76a.53.53,0,0,0,1-.35c-.06-.18-.13-.35-.19-.53l.37-.05c.44-.07.87-.15,1.3-.24l0,.12a.53.53,0,0,0,1-.36h0c.4-.11.79-.23,1.18-.37l.17.54a.53.53,0,0,0,1-.35l-.18-.58a10.9,10.9,0,0,0,1.52-.78l.36.83c.28.62,1.28.27,1-.35l-.47-1.08c.14-.1.28-.19.41-.3a13.5,13.5,0,0,0,2.84-3.37.54.54,0,0,0,.74-.65l-.12-.38c.4-.68.79-1.38,1.18-2.07A494,494,0,0,1,367.11,256c.36,2.11.53,4.35,1.1,6.42a3.27,3.27,0,0,0,1.81,2.49c2.19.8,3.42-1.88,3.73-3.59a33.8,33.8,0,0,0,.11-6.12q0-4.2-.09-8.41-.11-8-.35-16.09h0l.94-.12a.54.54,0,0,0,0,.18,179.25,179.25,0,0,1,3.46,30.89,26.88,26.88,0,0,1-3.35-.13c-.67-.07-.89,1-.21,1a37.27,37.27,0,0,0,12-1,.69.69,0,0,0,.71.4.53.53,0,0,0,.44-.29l0-.13a.48.48,0,0,0,0-.26c2.1-.5,4.19-1.07,6.28-1.62l1.91-.49c.3.48,1.07.25,1-.24.7-.16,1.41-.32,2.12-.46a.55.55,0,0,0,.53-.1l1.26-.23c.05.2.1.4.16.59.2.66,1.2.3,1-.35a2.85,2.85,0,0,1-.11-.39c1-.15,2-.26,3-.32l2.06-.1c.05.18.11.36.16.54a.53.53,0,0,0,1-.35l-.07-.24c.62,0,1.24-.07,1.86-.13a.55.55,0,0,0,.8-.08,22,22,0,0,0,2.41-.4l.15.49c.18.55,1.12.38,1-.22l-.09-.55c.25-.07.51-.14.76-.23a.53.53,0,0,0-.35-1l-.79.25a53.2,53.2,0,0,1-1.86-9.2.45.45,0,0,0,0-.11c.3-.46.59-.91.9-1.37q.11,1.62.3,3.24c.83,6.58,4.17,13.4,11.5,14.19,7,.76,9.41-5.68,9.13-11.55-.23-4.87-.72-9.54-.27-14.44.47-5.15,1.48-10.24,2.39-15.33,3.63-20.19,3.52-40.59,3.18-61-.17-10.29-.35-20.59,0-30.88.28-8.14.06-17.68,4.37-24.94,2.24-3.78,6.05-6.4,10.57-6,4.89.38,9.19,3.79,11.63,7.91,2.58,4.37,3.42,9.52,3.94,14.48.55,5.22.91,10.46,1.34,15.69,1.66,20.11,3.7,40.29,4.36,60.48a.43.43,0,0,0-.24-.26c-11.27-5.38-23.77-.39-35.56-2.52a.53.53,0,0,0-.21,1c.38.07.77.13,1.15.18a.14.14,0,0,1,0,.06c-.07,1.24-.15,2.49-.23,3.73-.26,0-.53-.09-.8-.12-.68-.09-.89,1-.21,1l1.08.18a.52.52,0,0,0,.59.18l.13,0a34.66,34.66,0,0,1,4.08,1.21.62.62,0,0,0,.24.08l3.09,1.1c0,.11,0,.21,0,.32a.53.53,0,0,0,1,0l.54.17c2.07.64,4.16,1.2,6.28,1.65v0c0,.58.77.61,1,.17l1.44.27a1.58,1.58,0,0,0,.53.18.46.46,0,0,0,.31,0c.61.1,1.23.19,1.84.26a67.48,67.48,0,0,0,8.05.39c0,.59.92.53,1,0q.81,0,1.56-.12c0,.65,1,.85,1,.18l0-.33a5.74,5.74,0,0,0,2.34-.81c0,19.45-2.27,38.81-2.54,58.25a215.49,215.49,0,0,0,7.4,59.15q2.29,8.49,5.31,16.78a20.59,20.59,0,0,1-7.59-5.73c-1.89-2.32-3.39-4.48-6-6.12-5.5-3.53-12.52-4.84-18.69-6.69-.55-.17-.8.58-.45.92a55.76,55.76,0,0,0,9.68,7.66v0a.5.5,0,0,0,.73.43l1.1.65a47.63,47.63,0,0,1-11.69.19c-4-.45-7.87-1.44-11.89-.68a.53.53,0,0,0-.4.82c1.59,3,4.55,4.51,7.75,5.18,4.16.87,8.23.82,12.3,1.84a.55.55,0,0,0,.54.15c.51.14,1,.29,1.52.47,3.74,1.32,7.4,3,11.37,3.51a27.4,27.4,0,0,0,5.28,0,36.81,36.81,0,0,1,4.64.14.51.51,0,0,0,.22.11.57.57,0,0,0,.31-.05,7.44,7.44,0,0,1,2.49.63c0,.07.05.13.08.19a.58.58,0,0,0-.68.38l-.08.22a.52.52,0,0,0,.18.51.9.9,0,0,0,1.07.19h0q1.2,3.11,2.5,6.17c-.85.14-1.69.26-2.54.36l-1.47.18a3.12,3.12,0,0,0-.15-1.25l2.8.34c.67.08.88-1,.21-1l-21.94-2.64-11.48-1.38c-2.61-.31-5.68-1.14-8.3-.48-3.9,1-4.28,5.17-.94,7.15a9.38,9.38,0,0,0,1.71.79v.32c0,.66,1,.6,1,0a18.65,18.65,0,0,0,4.24.4.58.58,0,0,0,.61,0c1.61,0,3.23-.1,4.81,0a.49.49,0,0,0,.5,0,12,12,0,0,1,4.06,1,.52.52,0,0,0,.68-.24h.08c12.31-1,25.75-.85,37.45-5.29,11.05-4.2,18-13.85,24.45-23.29,6.6-9.71,12.87-20,22.32-27.26a57,57,0,0,1,34.9-11.58c3.69,0,7.05.56,10,3a23.11,23.11,0,0,1,4.77,5.46,16,16,0,0,1-3,5.8c-.44-.2-1,.3-.67.76l0,0c-2.75,3.17-6.37,5.75-9.31,8.72a20.92,20.92,0,0,0-5,7.11c-1.22,3.26-.68,6.51-.52,9.89,0,0,0,0,0,.05a81.61,81.61,0,0,0-23.48,27.51,12,12,0,0,0-10.5,9.16,15.39,15.39,0,0,0-.18,4,7.44,7.44,0,0,1-2.47,6.26,46.36,46.36,0,0,1-8.83,7.29c-3.66,2.15-7.64,2.53-11.68,3.48A40.43,40.43,0,0,0,511.85,389c-7.44,4.1-14.72,8.51-22.07,12.77-7.12,4.13-14.31,8.15-21.33,12.45-6.18,3.79-12.24,8.08-16.8,13.79-7.8,9.76-10,24.11-.74,33.65,10.2,10.46,27.13,12.52,40,6.19.61-.3.26-1.3-.35-1a35.4,35.4,0,0,1-4.29,1.75,6.6,6.6,0,0,0-1.16-2.53l-3.44-6.42c-2.32-4.34-4.62-8.69-7-13A242,242,0,0,0,460,422.31a.53.53,0,0,0-.87.6,232.21,232.21,0,0,1,13.49,22.14c2.09,3.83,4.14,7.69,6.2,11.54l2.94,5.51c.31.57,2.49,4.34,3.52,6.06a.43.43,0,0,0-.25.16l-.1.12a.55.55,0,0,0-.06.6,34.86,34.86,0,0,1-4.38.94c.27-1-.64-2.06-1.07-2.9-1.11-2.11-2.22-4.21-3.35-6.31q-3.12-5.86-6.31-11.67-6.65-12.08-13.58-24a.43.43,0,0,0-.3-.22A66.83,66.83,0,0,1,467,416.4a.4.4,0,0,0,.06.16q14.18,22.59,27,46a.42.42,0,0,0,.59.19c-.78,1.32-1.54,2.66-2.29,4q-13.3-24.17-28.47-47.24c-.37-.57-1.25,0-.87.6q15.17,23.09,28.51,47.31a.47.47,0,0,0,.06.45l.83,1.16a.53.53,0,0,0,.87-.6c-.1-.2-.21-.39-.32-.59,1.84-3.34,3.8-6.59,5.84-9.79h0c.47.45,1.05-.2.78-.7l-.16-.3c3-4.69,6.25-9.26,9.54-13.77a.71.71,0,0,1,.1.14c.36.58,1.2,0,.87-.6l-.27-.49c5.19-7.06,10.58-14,15.81-21h0a.52.52,0,0,0,.47-.67c1.59-2.16,3.18-4.33,4.73-6.52l.33.47a.53.53,0,0,0,.87-.6c-.17-.27-.36-.54-.53-.82.64-.91,1.28-1.83,1.91-2.75a.52.52,0,0,0,.51-.75c.6-.88,1.2-1.77,1.79-2.66l.07.08c.44.45,1.08-.21.79-.7l-.21-.36c.39-.59.77-1.19,1.16-1.79l.1.17a.53.53,0,0,0,.93-.47l-.33-.8c.32-.5.64-1,.95-1.51.48-.78.94-1.56,1.39-2.34a.86.86,0,0,0,.22,0l.11-.05a.54.54,0,0,0,.33-.67c0-.1-.06-.2-.09-.3.52-.95,1-1.91,1.49-2.87a.55.55,0,0,0,.25-.53c.43-.89.83-1.79,1.21-2.7a.52.52,0,0,0,.48-.55l0-.47c.34-.83.67-1.68,1-2.53a.49.49,0,0,0,.2-.57c.47-1.34.91-2.69,1.31-4.07s.71-2.53,1-3.8a.5.5,0,0,0,.77-.47l0-.35a.5.5,0,0,0-.32-.44l-.06-.11c.35-1.36.7-2.72,1.06-4.08a.53.53,0,0,0,.35-.67l-.1-.28a99.46,99.46,0,0,1,3-9.65c.57-1.54,1.2-3.05,1.87-4.55a.51.51,0,0,0,.24-.52,81.2,81.2,0,0,1,16.8-24,79.12,79.12,0,0,1,13-10.33.56.56,0,0,0,.52-.33l.49-.31c2.95-1.82,6.08-3.45,8.9-5.5,0,0,0,.07,0,.11.25.63,1.25.28,1-.35-.06-.14-.12-.28-.17-.42a23.51,23.51,0,0,0,2.78-2.51,14.46,14.46,0,0,0,4-8.57A.69.69,0,0,0,602,306.56ZM314.23,382.22c.55.33,1.1.66,1.64,1A44.58,44.58,0,0,0,311.4,386c-.22-.77-.46-1.53-.71-2.28a.55.55,0,0,0,.68.12l2.77-1.5A.34.34,0,0,0,314.23,382.22Zm7.92,5.06q-4.61,2.43-9.1,5.05l-.05.05-.54-2.31a1,1,0,0,0,.19-.08,63.9,63.9,0,0,1,7.05-4.35C320.53,386.18,321.34,386.72,322.15,387.28ZM312.21,389c-.16-.66-.33-1.31-.51-2a43.86,43.86,0,0,1,4.85-3,.4.4,0,0,0,.22-.28c.65.4,1.29.81,1.93,1.22A62.53,62.53,0,0,0,312.21,389ZM326,390.07c1.66,1.28,3.28,2.61,4.88,4a63.74,63.74,0,0,1-15.52,8.67c-.45-1.87-.88-3.75-1.31-5.63a.94.94,0,0,0,.15-.06q5.67-3.48,11.56-6.62A.45.45,0,0,0,326,390.07Zm-10.39,13.66h.08a65,65,0,0,0,15.83-8.83.6.6,0,0,0,.15-.18l3.56,3h0c-6.12,3.43-12.85,5.27-18.8,9.06C316.12,405.79,315.86,404.76,315.61,403.73ZM347,407.6a.56.56,0,0,0,.58-.12L348,407l0,0c1.31.9,2.6,1.82,3.83,2.79-9.64,4.93-19.37,9.71-28.85,14.95a.28.28,0,0,0-.14.12q-.82-1.83-1.59-3.69a.49.49,0,0,0,.28-.06Zm10.37,7.32a23.92,23.92,0,0,1,2.3,3.32q-16.38,6.51-32.12,14.45c-.6.3-.26,1.3.35,1q15.81-8,32.27-14.5l.26.51a29.18,29.18,0,0,1,1.14,2.85q-16.08,7.66-32.8,13.78l-.39-.65c-1.15-2.05-2.23-4.12-3.27-6.22a.43.43,0,0,0,.33,0Zm5.37,11.78-16.58,6.38c-5.15,2-10.17,3.94-14.81,7a.43.43,0,0,0-.19.24c-.63-1-1.25-2-1.85-3q16.62-6.06,32.59-13.7Q362.35,425.11,362.71,426.7ZM368.63,447a17.47,17.47,0,0,0,1.12,1.55,101.21,101.21,0,0,0-25.26,13.55l0,0c-.63-1.28-1.27-2.54-1.94-3.76,8.2-4.82,17.59-7.06,25.82-11.82C368.45,446.64,368.54,446.8,368.63,447Zm-1.06-1.47a.51.51,0,0,0-.46.5c-8,4.49-17.12,6.74-25.09,11.41-.17-.32-.35-.63-.53-.94-.63-1.06-1.27-2.12-1.93-3.16a.46.46,0,0,0,.46,0l25.78-10.43c.63-.25.28-1.25-.36-1l-25.78,10.43a.52.52,0,0,0-.31.62c-.63-1-1.27-2-1.91-3a.54.54,0,0,0,.25,0,295.88,295.88,0,0,0,27.42-11.6,30.48,30.48,0,0,0,2.65,7.11Zm-36-4.48a.48.48,0,0,0,.36-.08c4.84-3.16,10.15-5.14,15.52-7.21l15.51-6c.27,1.24.5,2.48.73,3.73Q348.8,438,334,444.74,332.76,442.88,331.56,441Zm3,4.63q14.61-6.63,29.3-13.1c.3,1.6.61,3.2,1,4.78A297.84,297.84,0,0,1,337.34,449a.47.47,0,0,0-.32.38ZM373.49,452l.56.34-14,9.29c-3.93,2.61-8.42,5-11.77,8.34l-1.47-3.08a.52.52,0,0,0,.54,0q12.85-7.53,26-14.64A.45.45,0,0,0,373.49,452Zm-22.6,21a320.5,320.5,0,0,0,27.59-19,57.89,57.89,0,0,0,7.9.9c-.17.14-.34.31-.54.47-1.5,1.19-2.95,2.46-4.42,3.69-2.9,2.43-5.73,4.89-8.48,7.49-5.73,5.4-12.62,9.28-18.43,14.6-.69-1-1.35-2-2-3.1,1.91-2.2,4.55-3.21,7-4.66a59.68,59.68,0,0,0,7.29-5.46l14.93-12.26c.52-.43-.07-1.31-.6-.87l-15.71,12.9a50,50,0,0,1-7.28,5.25c-2.23,1.24-4.45,2.28-6.19,4.15-1.15-2-2.21-4.09-3.24-6.19l.09-.06c3.52-3.65,8.46-6.17,12.67-9l13.37-8.85a.63.63,0,0,0,.17-.2,14,14,0,0,0,2.13.83,320.17,320.17,0,0,1-26.87,18.45C349.71,472.48,350.31,473.36,350.89,473Zm8,13.52c11.95-9.53,23-20.19,34.22-30.52l0-.05a36.48,36.48,0,0,1,3.75,1.22c-10.62,11.49-22.71,21.52-34.5,31.77a.57.57,0,0,0-.19.47A29.41,29.41,0,0,1,358.87,486.52Zm4,3.37a.46.46,0,0,0,.13-.08c11.53-10,23.35-19.84,33.82-31a.41.41,0,0,0,.42-.2l.55-.84a.45.45,0,0,0,.09-.2c1,.44,2.07.94,3.06,1.47l0,0Q383.6,475.58,366,491.79A25.2,25.2,0,0,1,362.84,489.89Zm46.08-24.73A28.19,28.19,0,0,1,412,469c-4.39,2.91-7.62,6.59-10.89,10.71-3.84,4.83-8.8,8.6-13.51,12.53A42.62,42.62,0,0,1,380,494c4.45-5,9.87-9,14.6-13.76,2.53-2.55,4.52-5.59,7.11-8.07,2.4-2.31,5.16-4.09,7.11-6.85A.71.71,0,0,0,408.92,465.16ZM393.71,490c-1.07.44-2.16.87-3.26,1.28a79.22,79.22,0,0,0,10.19-9.33c3.81-4.43,7-8.75,11.89-12A24.81,24.81,0,0,1,416,480.46C408.58,483.65,401.18,486.9,393.71,490Zm14.55-25.49a.44.44,0,0,0-.22.17c-1.94,2.75-4.73,4.55-7.12,6.85-2.58,2.49-4.57,5.52-7.1,8.06-5,5-10.76,9.19-15.34,14.62a25.13,25.13,0,0,1-5.55-.14l17.3-16.59c2.53-2.43,5.08-4.84,7.49-7.38,2.58-2.7,4.86-5.73,7.93-7.9A28.71,28.71,0,0,1,408.26,464.48Zm-3.49-3a46.78,46.78,0,0,0-6.55,6.5c-2.56,2.79-5.3,5.41-8,8L372,493.48a.45.45,0,0,0-.15.37,21.42,21.42,0,0,1-3.73-1.1l-1.07-.46q17.48-16.12,34.66-32.54a.72.72,0,0,0,.13-.19A31.9,31.9,0,0,1,404.77,461.5Zm-13-5.87a.49.49,0,0,0-.2.31c-11,10.11-21.78,20.51-33.46,29.81a39,39,0,0,1-3-3.72c5.2-4.8,11.39-8.23,16.63-12.93,2.68-2.4,5.25-4.92,8-7.25l3.75-3.14c.51-.42,2.59-2.64,3.49-3l.08,0a.51.51,0,0,0,.7-.24l.08-.15a.57.57,0,0,0,0-.29A35,35,0,0,1,391.8,455.63Zm-19.16-4.26q-13.08,7.1-25.92,14.62a.43.43,0,0,0-.22.28c-.52-1.1-1-2.19-1.57-3.27l.16-.07a100.07,100.07,0,0,1,25.38-13.57A16.47,16.47,0,0,0,372.64,451.37ZM356.52,414l-.38.08a.4.4,0,0,0-.35.4l-30.73,14a.55.55,0,0,0-.3.37q-.76-1.57-1.5-3.18a.52.52,0,0,0,.38-.05c9.55-5.27,19.36-10.09,29.07-15.06,0,0,0,0,.07-.05A35.68,35.68,0,0,1,356.52,414Zm-14.19-10.86q-11,6.35-22.66,11.58c-.61.28-.27,1.28.36,1q11.93-5.37,23.28-11.92c1.26.85,2.54,1.69,3.81,2.54L321,420.2l0,0c-1-2.49-1.94-5-2.79-7.54-.07-.22-.13-.44-.21-.65q11-4.94,21.74-10.29a.58.58,0,0,0,.26-.28C340.73,402,341.52,402.58,342.33,403.12Zm-3.22-2.26q-10.64,5.29-21.48,10.16c-.32-1-.64-2.09-.93-3.14,6-3.92,12.89-5.77,19.1-9.26a.46.46,0,0,0,.21-.23l1,.84C337.68,399.78,338.39,400.33,339.11,400.86ZM325.24,389.5l-.08,0q-5.78,3.08-11.34,6.5l-.63-2.77a.54.54,0,0,0,.46,0q4.59-2.67,9.27-5.15a.53.53,0,0,0,.16-.13c.36.25.73.51,1.08.77S324.88,389.23,325.24,389.5Zm-12-7.9-2.44,1.33a.4.4,0,0,0-.23.29c-.49-1.42-1-2.81-1.66-4.18Zm17.53-83.84h0q2.65,15,5.3,30a.59.59,0,0,0-.07.85l.1.12c-.44.32-.88.65-1.31,1l-5.91-30.11A7.43,7.43,0,0,0,330.74,297.76Zm-2.95,38.58q-.69.71-1.41,1.38-4.11-16.23-8.21-32.47a.51.51,0,0,0-.09-.18,33.6,33.6,0,0,1,4.19-3,.38.38,0,0,0,0,.15q3,16.2,7.18,32.15a.35.35,0,0,0,.07.15l-.85.89Q325.15,319.61,321,304c-.17-.66-1.17-.31-1,.35Q324.23,320.23,327.79,336.34Zm-7.12.71c-.41-2.84-.92-5.66-1.51-8.48A142.27,142.27,0,0,0,314,310.36a.53.53,0,0,0-1,.35,145.53,145.53,0,0,1,4.47,15.3c.67,2.87,1.24,5.75,1.71,8.66.22,1.31.42,2.62.59,3.94,0,.12.27,1.65.54,2.68a.5.5,0,0,0-.31.18l-.11.15a.58.58,0,0,0-.13.38,17.09,17.09,0,0,1-1.75.52l-6.39-30.59a.51.51,0,0,0-.1-.21c1-1.09,2-2.27,3-3.37a.44.44,0,0,0,.56-.16l.08-.09c1.2,10.92,6.35,20.93,7.73,31.81a.56.56,0,0,0-.36.76,12.68,12.68,0,0,1-1.26.69A18.83,18.83,0,0,0,320.67,337.05Zm-9.94-24.5q3.15,15.09,6.31,30.18c-.39.07-.77.13-1.16.18a277.32,277.32,0,0,0-6.75-28.7A.4.4,0,0,0,309,314,14.69,14.69,0,0,0,310.73,312.55Zm5.41-5.43a.37.37,0,0,0,0-.14c.36-.4.74-.78,1.13-1.15q4.13,16.35,8.26,32.68c-.49.43-1,.84-1.53,1.22C322.53,328.59,317.14,318.36,316.14,307.12Zm7.18-4.94a.53.53,0,0,0-.44-.44c.56-.34,1.11-.67,1.68-1a.45.45,0,0,0,.2-.56.48.48,0,0,0,.16.08.53.53,0,0,0-.14.51q4.1,15.47,7,31.22a.5.5,0,0,0,.1.22c-.5.49-1,1-1.48,1.48Q326.29,318.07,323.32,302.18Zm1.22-2.28h0a.08.08,0,0,0,0,0Zm-82.82-72.58a.57.57,0,0,0,.78,0l2.56-2.41a17.53,17.53,0,0,0,1.07,2.06.42.42,0,0,0-.45,0L242,228.66C241.92,228.22,241.81,227.77,241.72,227.32Zm3-3.32a.51.51,0,0,0-.34.14l-2.65,2.5a.31.31,0,0,0-.09.12,21.13,21.13,0,0,1-.3-2.24.53.53,0,0,0,.45-.14,12.07,12.07,0,0,1,2.46-1.72C244.36,223.11,244.52,223.56,244.69,224Zm3.57,6.47c-1.55,1-3.06,2-4.54,3-.22-.53-.43-1.06-.64-1.59-.28-.71-.53-1.45-.76-2.21l3.71-1.75a.55.55,0,0,0,.3-.64c.21.34.44.68.69,1a12.9,12.9,0,0,1-4,1.86c-.65.18-.3,1.18.36,1a13.68,13.68,0,0,0,4.26-2,17.58,17.58,0,0,0,2.57,2.47,31.16,31.16,0,0,1-5.41,3.37.54.54,0,0,0-.32.51c-.14-.33-.28-.66-.41-1,1.55-1.09,3.12-2.15,4.74-3.16C249.43,231,248.83,230.11,248.26,230.47Zm5.4,24.25c-1-1.88-1.93-3.77-2.88-5.68a.49.49,0,0,0,.61,0q4.43-2.87,8.58-6.11c.54-.42-.06-1.3-.6-.88q-4.15,3.24-8.58,6.12a.48.48,0,0,0-.22.41c-.42-.85-.84-1.69-1.25-2.54l9.73-6.22c.57-.37,0-1.24-.6-.87l-9.59,6.12c-.22-.47-.45-.93-.67-1.4a.43.43,0,0,0,.57,0q3.8-3.21,7.74-6.24c.54-.41-.06-1.29-.6-.87-2.63,2-5.2,4.1-7.74,6.24a.5.5,0,0,0-.19.41c-1.14-2.41-2.23-4.85-3.26-7.3a.41.41,0,0,0,.49.06,31.89,31.89,0,0,0,6-3.72c.4.28.81.55,1.24.81a47,47,0,0,1-6.39,4.57c-.59.35,0,1.23.59.88a46.64,46.64,0,0,0,6.5-4.66.54.54,0,0,0,.18-.28l1.08.58-.07.06a43.81,43.81,0,0,1-7.28,5.27c-.59.34,0,1.21.6.87a44.86,44.86,0,0,0,7.48-5.45.45.45,0,0,0,.16-.3c.29.15.59.3.9.44,2,.95,4.12,2,5.35,3.88a16.24,16.24,0,0,1,1.5,4.4,77.8,77.8,0,0,0-9.19,7c-.5.44.09,1.32.6.87a76.84,76.84,0,0,1,9-6.82c.1.24.21.47.33.7a6.93,6.93,0,0,0,3.05,2.94,84.64,84.64,0,0,1-10.93,8.47c-.57.37,0,1.25.6.87a86.78,86.78,0,0,0,11.49-9,11.71,11.71,0,0,0,3-.15,66.87,66.87,0,0,1-8.23,6.46,47.89,47.89,0,0,0-6.4,4.89C255.38,258,254.51,256.36,253.66,254.72Zm11.12-.19a61.9,61.9,0,0,0,7.66-6.33l.31.05a76.85,76.85,0,0,1-15,13.83c-.3-.51-.61-1-.9-1.55A58.51,58.51,0,0,1,264.78,254.53Zm15.81,41.11a83.83,83.83,0,0,0-7.08-11.1h0a2,2,0,0,0,1.2-.7,28,28,0,0,1,4.76,4.84c-.64.4-1.45.8-1.69,1.51a.54.54,0,0,0,.12.63l.19.14a.56.56,0,0,0,.75-.06l.13-.13a.39.39,0,0,0,.12-.46.58.58,0,0,0,.13-.14c.38-.26.76-.53,1.13-.81.68-.5,1.35-1,2-1.54a.55.55,0,0,0,.71-.58c.63-.51,1.25-1,1.87-1.59.4.29.88.42,1.23-.08a.57.57,0,0,0-.21-.83c1.59-1.46,3.1-3,4.54-4.62a.52.52,0,0,0,.3-.08.51.51,0,0,0,.21-.49c.73-.83,1.45-1.68,2.14-2.54a.54.54,0,0,0-.58-.85c-4.27.92-7.78,4.37-12.19,4.53a18.58,18.58,0,0,0,2.54-4.55.54.54,0,0,0-.65-.74,10.61,10.61,0,0,0-4.45,2.31l-.25-.17c-.55-.36-1,.52-.52.91a16.6,16.6,0,0,0-1.92,2.42c-.33.52-1,2.49-1.69,2.61a.53.53,0,0,0-.42.38c-2-2.73-4.14-5.4-6.21-8.12A133.68,133.68,0,0,1,258.24,263a78.17,78.17,0,0,0,15.83-14.67.53.53,0,0,0-.17-.82,4.37,4.37,0,0,0-1.55-.35h-.19c-.79,0-1.56.15-2.48.23a5.34,5.34,0,0,1-.8,0c.17-.44-.5-.92-.93-.51l-.31.28c-2-.67-3.22-2.67-3.85-4.88-.87-3.08-1.84-5.15-4.65-6.86-3.18-1.94-6.67-2.93-9.41-5.61-3.51-3.44-4.83-7.65-5.64-12.38-.12-.66-1.17-.59-1.06.08.25,1.41.52,2.79.89,4.12a13.94,13.94,0,0,0-2.67,1.81c-.1-4.75,1.69-9.1,7.3-10.69,8-2.27,15,3.34,19.32,9.53,4.46,6.36,7.2,13.79,12.46,19.61,5.06,5.6,11.05,10,15.57,16.16,8.16,11.09,13.11,24.24,21.78,35a56.22,56.22,0,0,0,6.43,6.75l.05,0a.48.48,0,0,0-.2.07c-3.21,1.86-6.39,3.8-8.82,6.6a.5.5,0,0,0-.46.16c-1.51,1.61-3,3.25-4.52,4.83-2,2.05-3.77,2.37-6.29,3.3a7.25,7.25,0,0,0-2.88,1.91,10.17,10.17,0,0,0-1,1.35c-.27.45-.53.9-.78,1.36-.75,1.91-2.28,2.14-4.57.68a.47.47,0,0,0-.74-.25c-.29-.34-1,0-.89.57s-.62,2-.83,2.57l-.71,2q-1.08-3.4-2.19-6.8C286.77,310.5,284.28,302.8,280.59,295.64Zm-2.67-16.54a15.85,15.85,0,0,1,1.41,1.19h0c-.15.19-.28.38-.43.56a.54.54,0,0,0,.29.87,11.37,11.37,0,0,0,5.18-.94.9.9,0,0,0,.11.22.55.55,0,0,0,.48.21l.06.06.22.29.38.5.68.9c-.43.42-.88.82-1.32,1.23l0-.05-.67-.84-1.33-1.66c-.29-.36-1.07-.23-1,.34v.15c-.36.49.24,1.09.66.83.51.65,1,1.3,1.56,1.94l-.09.09c-.55.48-1.12.95-1.69,1.41a41.18,41.18,0,0,0-5.69-5.59.75.75,0,0,0-.2-.1A12.66,12.66,0,0,1,277.92,279.1Zm3.18-1.56-.43-.43c.26-.13.54-.24.82-.35Zm-1.41.13a4.72,4.72,0,0,1,.86.87c-.19.3-.38.6-.59.9a15.86,15.86,0,0,0-1.24-1.07A11.4,11.4,0,0,1,279.69,277.67Zm10.69,1a2.17,2.17,0,0,0-.67-.4c.5-.23,1-.43,1.52-.61C291,278,290.67,278.33,290.38,278.66Zm-1.84.15a.5.5,0,0,0,.37.33,1.48,1.48,0,0,1,.75.31c-.33.38-.66.75-1,1.11a3.81,3.81,0,0,0-1.35-1.14C287.71,279.21,288.12,279,288.54,278.81ZM286.21,280a.45.45,0,0,0,.23.24,2.92,2.92,0,0,1,1.47,1.14l-.85.86-.67-.88a6.52,6.52,0,0,0-.82-1.06ZM276,281.55l0,.06a39.38,39.38,0,0,1,5.57,5.46l-1.28,1a28.24,28.24,0,0,0-5-5.1C275.53,282.5,275.74,282,276,281.55Zm29.78,33.89A182.48,182.48,0,0,1,312,343.17a43.18,43.18,0,0,1-7.67-.71h0q-1.76-11.15-4.25-22.14a.53.53,0,0,0-.09-.2c.19-.32.38-.65.57-.95a8.32,8.32,0,0,1,.52-.79v.05a237.22,237.22,0,0,1,5.15,23.74c.11.67,1.16.6,1.05-.07a237.41,237.41,0,0,0-5.2-24,.44.44,0,0,0-.49-.34,7.43,7.43,0,0,1,3.54-2.22l.65-.19A.49.49,0,0,0,305.76,315.44Zm-6,26.07q-2.92-9.57-5.11-19.34a2.62,2.62,0,0,0,1.55.58q2.4,9.53,4.79,19.05Zm-5.87-20-.09,0c0-.11.07-.22.11-.33,0,.09.09.18.14.27A.41.41,0,0,0,293.9,321.49Zm3.36,1.14a3.91,3.91,0,0,0,1.92-1.39q2.25,10,3.88,20.23a.51.51,0,0,0,0,.37l.12.42-1-.2Q299.71,332.34,297.26,322.63Zm-5.38,3.69a.42.42,0,0,0,.29-.29l1.18-3.27a.52.52,0,0,0,.27,0l.08,0q2.1,9.35,4.88,18.51c-1-.26-1.92-.52-2.85-.8C294.66,335.66,293.32,331,291.88,326.32ZM313,343.15a184.53,184.53,0,0,0-6.28-28.07s0,0,0,0a8.1,8.1,0,0,0,1.39-.53s0,0,0,.06a274.68,274.68,0,0,1,6.7,28.46C314.24,343.09,313.64,343.12,313,343.15Zm19.66-11.74q-2.83-15.5-6.86-30.75a7.45,7.45,0,0,0,2-.56q2.85,14.56,5.71,29.11a.57.57,0,0,0-.12.68l.3.6c-.07.06-.15.11-.22.18C333.26,330.91,333,331.16,332.7,331.41Zm14.4-33.1q2.88,10.29,6.7,20.26l-1.75.93,0,0-.09-.09a.4.4,0,0,0-.43-.14,2.51,2.51,0,0,0-.29-1.35L351,317c-.24-.86-.42-1.73-.62-2.6-.39-1.74-.81-3.46-1.36-5.15-1.17-3.63-2.5-7.21-3.76-10.81l1.86-.34A.65.65,0,0,0,347.1,298.31Zm8.33-2.13q3,9.27,5.9,18.53l-.9.45q-3.18-9.27-5.76-18.73l0-.05Zm14.43,14.44-1.21.55a.5.5,0,0,0,.15-.54c-1.66-5.45-3.47-10.79-4.39-16.39a.54.54,0,0,0-.35-.42l1.15-.33a.5.5,0,0,0-.18.54Q367.13,302.43,369.86,310.62Zm-2.06.36a.45.45,0,0,0,.54.33L367,312c-.74-2.72-1.49-5.44-2.49-8.08-1.14-3-2.48-5.83-2.51-9.1a.43.43,0,0,0-.13-.32l1.57-.45a.49.49,0,0,0,0,.3C364.3,300,366.11,305.44,367.8,311Zm-4.68-7.65a87.32,87.32,0,0,1,2.87,9.1l-1.83.88c-1.61-5.86-4.15-11.63-5.15-17.61a.52.52,0,0,0-.27-.39l2.19-.59a.5.5,0,0,0,0,.13C360.93,297.89,362,300.54,363.12,303.33Zm.08,10.45-.91.44q-2.91-9.15-5.83-18.3l1.52-.4a.5.5,0,0,0,0,.25C359,301.9,361.56,307.78,363.2,313.78Zm-3.72,1.87-1.58.79a94.15,94.15,0,0,0-2.53-9.35,37.91,37.91,0,0,1-2.37-9.7.49.49,0,0,0-.54-.47l1.2-.29a.38.38,0,0,0,0,.15Q356.27,306.31,359.48,315.65Zm-2.54,1.29-.27.14a134.83,134.83,0,0,1-6.16-19.65l0-.05,1.76-.41a.47.47,0,0,0-.29.49C352.35,304.12,355.51,310.45,356.94,316.94Zm14.14-6.87a.48.48,0,0,0-.37-.26q-2.64-8-4.68-16.13a.4.4,0,0,0-.34-.33l1.37-.42c.15,5.74,2.69,11.46,4.6,16.88Zm-3-17.45.67-.21c.21,2.8,1.44,5.28,2.36,7.91,1,2.82,1.79,5.71,2.56,8.6l-1.07.47C370.74,304,368.19,298.27,368.11,292.62Zm9,14.91q-2.79-7.95-5.1-16.06l0-.07.93-.3q2.24,8.14,4.91,16.16ZM371,291.82q2.25,7.89,4.95,15.62a.5.5,0,0,0,.06.42l.05.08-1.36.57c-.68-2.55-1.38-5.11-2.22-7.61-1-2.9-2.48-5.71-2.65-8.81l1.16-.37S371,291.79,371,291.82Zm15,12a19,19,0,0,1-1.26-3c-.62-1.36-1.24-2.72-1.85-4.08-1.13-2.56-2.22-5.14-3.27-7.72h0a.53.53,0,0,0,0-.39c.81-.3,1.64-.6,2.48-.85,2.53,3.95,3.88,8.5,6.34,12.48a.42.42,0,0,0,0,.18,2.05,2.05,0,0,0,.28.56A9.88,9.88,0,0,1,386,303.82Zm4.82-8.17-3.9-8.53a8.49,8.49,0,0,1,1.13.12C392.1,288,391.53,292.41,390.83,295.65Zm-5.06-8.53q2.25,4.9,4.49,9.82a.47.47,0,0,0,.21.23,14.11,14.11,0,0,1-1,2.69c-2.46-3.92-3.81-8.41-6.26-12.35A14.27,14.27,0,0,1,385.77,287.12Zm-7.3,2a.52.52,0,0,0,.19.39q1.95,4.75,4.06,9.45c.68,1.51,1.39,3,2.09,4.52.14.29.23.6.35.87l-.5.26c-1.09.52-2.22,1-3.36,1.39,0,0,0,0,0-.07q-2.28-8.07-4.8-16.08l1-.38Zm-3,1.09q2.28,7.23,4.36,14.52a.43.43,0,0,0,0,.44c.15.37.31.74.47,1.11a.35.35,0,0,0,0,.08l-1.48.53,0-.16a.45.45,0,0,0-.18-.27q-2.59-7.79-4.76-15.69Zm-26,7.41a.62.62,0,0,0,0,.19,135.43,135.43,0,0,0,6.21,19.78l-1,.51Q351,308.17,348.09,298a.05.05,0,0,0,0,0l.68-.15Zm-5.34,1c1.42,4.07,3,8.12,4.22,12.26.55,1.85.89,3.75,1.36,5.62a10.18,10.18,0,0,0,1.22,3.56l-1.47.78-.09,0q-3.6-10.71-6.47-21.65c-.17-.66-1.17-.31-1,.35q2.88,11,6.52,21.8l-.75.4s0,0,0,0l-.1-.05a.53.53,0,0,0-.17,0c-.56-.91-1-4.1-1.22-4.83-.57-2-1.15-4-1.72-6.06q-1.67-5.89-3.34-11.81C342.13,298.89,343.15,298.78,344.16,298.63ZM340,299q2,7.06,4,14.12,1,3.52,2,7.07a8.46,8.46,0,0,0,.6,2.13c-1.13.6-2.26,1.2-3.37,1.82a147.89,147.89,0,0,1-4.65-24.87.53.53,0,0,0-.06-.19l1.11-.06Zm-2.44.11a.47.47,0,0,0,0,.24,149.39,149.39,0,0,0,4.75,25.33c-.66.37-1.31.76-2,1.15q-2.73-13-5.45-26.07c-.14-.66-1.13-.3-1,.36l5.49,26.29c-.76.47-1.51,1-2.24,1.47q-2.64-14.85-5.27-29.72l.11.07C333.39,299.13,335.63,299.21,337.59,299.15ZM349,276.37c-.16-.37-.32-.73-.47-1.1-.27-.62-1.27-.27-1,.36l.54,1.24-1.09.67-.28.2a8.38,8.38,0,0,1-.3-2.23c1.19-.43,2.36-.92,3.48-1.35h0a14,14,0,0,1,.47,1.52C349.92,275.91,349.47,276.13,349,276.37Zm4.79-3.62a.38.38,0,0,0-.15-.22l.64-.32.49,1.41-.72.36Zm1.93.37-.47-1.36,0-.05c.56-.31,1.1-.64,1.64-1,.11.5.21,1,.32,1.49-.09.05-.16.12-.25.17C356.57,272.64,356.16,272.89,355.75,273.12ZM360.1,270a4,4,0,0,1-.18-.85.47.47,0,0,0-.23-.39l.89-.7a.42.42,0,0,0,.09.14,4.43,4.43,0,0,1,.67.83l-.07.06C360.87,269.33,360.48,269.64,360.1,270Zm4.44-3.08a.58.58,0,0,0-.5,0,.5.5,0,0,0-.21.48c-.53.35-1.08.68-1.59,1a6.32,6.32,0,0,0-.85-1,27.14,27.14,0,0,1,4.87-3.17A4,4,0,0,1,364.54,266.87Zm-5.65,2.45a4.73,4.73,0,0,0,.35,1.34c-.36.29-.73.59-1.1.87l-.25-1.2a.41.41,0,0,0-.12-.2l.56-.39Zm-6.09,3.62a.88.88,0,0,0,0,.16c.09.45.19.9.28,1.34l-1.75.8a11.66,11.66,0,0,0-.44-1.42s0,0,0-.05C351.53,273.51,352.17,273.23,352.8,272.94Zm-7.42,2.92a9.76,9.76,0,0,0,.41,2.52l-1.5,1.06a4.51,4.51,0,0,1-.23-1.93,8.57,8.57,0,0,0,0-1.25C344.48,276.14,344.93,276,345.38,275.86Zm-2.39.62c.15,1.22-.09,2.53.45,3.56l-1.31.92s0,0,0,0a11,11,0,0,1-.92-4.23A13.64,13.64,0,0,0,343,276.48Zm-7.45-1.36a11.84,11.84,0,0,0,4.6,1.55,11.62,11.62,0,0,0,1,4.6.53.53,0,0,0,.21.23c-1.1.75-2.22,1.47-3.4,2.12a17.6,17.6,0,0,0-2.94,1.85A37,37,0,0,1,335.54,275.12ZM310.2,157.91q1.73,3.57,3.46,7.13a9.24,9.24,0,0,0-1.49.23q-1.53-4.05-2.94-8.16a9.37,9.37,0,0,0,1,.31A.41.41,0,0,0,310.2,157.91Zm6.35-1.4a63.54,63.54,0,0,0,3.07,5.69.5.5,0,0,0,.24.65l.07,0a8.68,8.68,0,0,1-.65.7q-1.3-1.9-2.54-3.85c-.4-.64-.95-2.22-1.71-2.67.5-.18,1-.37,1.51-.57C316.55,156.49,316.54,156.5,316.55,156.51Zm4.13,5.4a61.56,61.56,0,0,1-3.13-5.75l0,0a14.14,14.14,0,0,1,1.35-.44.52.52,0,0,0,.06.26l2.62,4.92A12.44,12.44,0,0,0,320.68,161.91Zm.91-6.75q.8,2.18,1.75,4.29s.06.07.08.11a4.08,4.08,0,0,0-1,.54.51.51,0,0,0-.16-.19q-1.19-2.24-2.38-4.47C320.43,155.33,321,155.23,321.59,155.16Zm5,3.66,0,0h0a8.88,8.88,0,0,1-.76-1.86c-.26-.66-.5-1.33-.71-2l1.27,0a.41.41,0,0,0,0,.16,12.58,12.58,0,0,0,1.17,4.19h-.63A.51.51,0,0,0,326.63,158.82Zm8.95-.64h0l-.42.1a.55.55,0,0,0,0-.18c-.06-.19-.19-.23-.29-.37a3.1,3.1,0,0,1-.31-.71,13.23,13.23,0,0,1-.58-2.16C335.15,155.34,336.37,156.53,335.58,158.18Zm-2.73-3.58a.75.75,0,0,0,0,.15,14.3,14.3,0,0,0,.63,2.5,3.3,3.3,0,0,0,.56,1.16v0l0,0,0,0-.7.15a21.17,21.17,0,0,1-1.62-4A3.3,3.3,0,0,1,332.85,154.6Zm-2.15.21a22.41,22.41,0,0,0,1.59,4.05c-.43.07-.87.13-1.31.18,0,0,0-.06,0-.09l-.06-.17a.91.91,0,0,0-.11-.16,11,11,0,0,1-1.31-3.74C329.88,154.87,330.29,154.84,330.7,154.81Zm-2.29.09a12.79,12.79,0,0,0,1.47,4.25l-1.07.07v-.15a.44.44,0,0,0-.4-.46,11,11,0,0,1-1-3.61.94.94,0,0,0,0-.09h1ZM324,155a.6.6,0,0,0,0,.12,28.31,28.31,0,0,0,1,2.67,12.82,12.82,0,0,0,.62,1.49,10,10,0,0,0-1.25.07.53.53,0,0,0-.05-.23c-.6-1.32-1.15-2.67-1.66-4C323.13,155,323.59,155,324,155Zm-10,2.37a.44.44,0,0,0,.38.62,11.55,11.55,0,0,1,1,1.66c.34.54.67,1.08,1,1.62.58.91,1.19,1.8,1.8,2.7a.49.49,0,0,0,.09.34,4.73,4.73,0,0,1-1,.41l0-.07a29.7,29.7,0,0,1-3.9-7.09l0,0C313.61,157.46,313.85,157.4,314.09,157.34Zm-1.73.29a.44.44,0,0,0,0,.25A30.86,30.86,0,0,0,316,164.7a.56.56,0,0,0,.08.2c-.43,0-.87.06-1.32.08-1.2-2.46-2.4-4.93-3.59-7.39a4.73,4.73,0,0,0,.54,0Zm-4.62-1.15a.49.49,0,0,0,.33.52q1.49,4.35,3.11,8.65L310,166.74c-.16.15-.34.3-.5.47l-1.27-5.39L306.81,156Q307.27,156.26,307.74,156.48Zm21.14,53.71a59.17,59.17,0,0,0,2.48,6.45l0,0-.7.09c-.42-1-.85-2-1.27-3.08-.27-.64-.45-1.61-1.12-1.94a.69.69,0,0,0-.24-.05A13.64,13.64,0,0,1,328.88,210.19Zm-1.26,2.49a.52.52,0,0,0,.33.16,6.84,6.84,0,0,1,.31.84l.52,1.25c.28.67.56,1.34.83,2l-.8.18c-.41-1-.83-2-1.24-3a.48.48,0,0,0-.34-.3v0C327.36,213.39,327.48,213,327.62,212.68Zm-.79,2.41.95,2.32a15.44,15.44,0,0,0-2,.78A31.4,31.4,0,0,0,326.83,215.09Zm5.57,1.47a.49.49,0,0,0,0-.28,56.84,56.84,0,0,1-2.69-7.14A9.36,9.36,0,0,1,330.8,208a.39.39,0,0,0,0,.15l3.3,8.31C333.54,216.48,333,216.51,332.4,216.56Zm7.81-.19c-.86,0-1.73,0-2.6,0-1.24-2.65-2.37-5.34-3.39-8.09a.53.53,0,0,0-1,.36q1.47,3.93,3.24,7.74h-1.22l-3.42-8.62a.51.51,0,0,0-.37-.32,9.46,9.46,0,0,1,2.49-1.29,8.81,8.81,0,0,1,4.37-.37.42.42,0,0,0,0,.36,94.09,94.09,0,0,1,4.31,10.07C341.83,216.31,341,216.35,340.21,216.37Zm3.53-.23A93.56,93.56,0,0,0,339.43,206c.83.18,1.66.4,2.53.59,0,0,0,.06,0,.09,1.07,1.48,1.5,3.53,2.08,5.23l1.35,3.93C344.87,216,344.31,216.07,343.74,216.14Zm2.73-.51-1.65-4.82a25.23,25.23,0,0,0-1.47-3.94l.55.08a8.53,8.53,0,0,0,1.24,0,.49.49,0,0,0,0,.12q1.26,4.08,2.54,8.16C347.29,215.4,346.88,215.53,346.47,215.63Zm6.57-4.36c-.47-1.58-.93-3.17-1.4-4.75-.19-.65-1.19-.3-1,.36q.78,2.69,1.58,5.39a11.2,11.2,0,0,1-1.27,1.21c-.88-2.09-1.67-4.21-2.39-6.36a.53.53,0,0,0-1,.36c.74,2.24,1.58,4.45,2.5,6.63a13.64,13.64,0,0,1-1.41.75c-.82-2.65-1.65-5.31-2.48-8,2.25-.29,4.47-1.08,6.74-.82l1.17,3.58C353.76,210.22,353.41,210.76,353,211.27Zm1.78-2.83c-.23-.7-.46-1.4-.7-2.11C355.39,206.76,355.31,207.5,354.82,208.44Zm7.05-106.09c-.74-4.84-2.11-10.18-.59-15a12.46,12.46,0,0,1,9.14-8c8.95-2.24,16.9,4.19,21,11.62,5,9,5.79,19.94,7.4,29.91,1.73,10.76,3.44,21.51,5,32.29,1.86,12.54,3.56,25.11,5,37.71l-.29-.2a62,62,0,0,0-1.47-7.64c-.17-.66-1.17-.3-1,.36a60.49,60.49,0,0,1,1.32,6.67,6.2,6.2,0,0,0-1.36-.4q-.36-3.27-.5-6.55a.53.53,0,0,0-1.06.07c.09,2.13.26,4.26.49,6.38a7.12,7.12,0,0,0-1,.06c-.48-2.39-.95-4.79-1.43-7.19-.13-.66-1.19-.59-1.06.08.49,2.44,1,4.88,1.46,7.31a12.56,12.56,0,0,0-1.63.56c-.56-2.51-1-5-1.34-7.58-.09-.68-1.15-.6-1.06.07q.52,4,1.42,8c-.48.24-1,.5-1.43.77a.69.69,0,0,0-.25,0,72.86,72.86,0,0,1-1.18-10.43c0-.68-1.09-.6-1.06.08a74.12,74.12,0,0,0,1.29,11l-1,.61A93,93,0,0,0,393.83,181a.4.4,0,0,0-.18-.25,26.54,26.54,0,0,1,12.24,2c.63.26,1.1-.69.47-1a27.63,27.63,0,0,0-16.09-1.62,26.64,26.64,0,0,0-7.33,2.62c-1.25.66-2.35,1.5-3.55,2.24-2.35,1.44-4.45,1.53-7.14,1.24-.68-.08-.89,1-.21,1h.11a.49.49,0,0,0-.18.4l0,4.77a.59.59,0,0,0,0,.2l-.36.14q-.86-13.17-2-26.3Q366.71,134.31,361.87,102.35Zm17.68,85.13c-.08-.67-1.14-.6-1.05.08.17,1.49.29,3,.38,4.48a12.6,12.6,0,0,0-1.35-.21c0-.65,0-1.49,0-1.76l-.21-2.77a.28.28,0,0,0,0-.13,6.5,6.5,0,0,0,1.32-.47c.63-.3,1.22-.63,1.81-1a.45.45,0,0,0,0,.29q.56,3.47,1.12,7a10.26,10.26,0,0,0-1.22-.54l-.28-.08C379.88,190.72,379.75,189.1,379.55,187.48Zm-4.23,4.36v-.18l-.11-1.28-.2-2.56a.53.53,0,0,0-.19-.36,10.9,10.9,0,0,0,1.41-.08h0l.33,4.38v0C376.15,191.78,375.73,191.8,375.32,191.84Zm-2.31.46c0-1.56,0-3.12,0-4.68a.49.49,0,0,0-.07-.25c.4,0,.8.06,1.2.08a.46.46,0,0,0-.21.44c.1,1.21.2,2.42.29,3.63,0,.15,0,.31,0,.48C373.84,192.08,373.42,192.18,373,192.3Zm8.38-6.37a.54.54,0,0,0-.57-.46c.74-.45,1.47-.92,2.22-1.37l-.47.49a.53.53,0,0,0,.44.87l.4,5.53a10.89,10.89,0,0,0,.38,3.36l-1.19-.74a.33.33,0,0,0,0-.14C382.21,191,381.8,188.44,381.39,185.93Zm3.58,8.39c-.84-1.18-.52-3.64-.62-5l-.36-4.9a.52.52,0,0,0-.64-.47c.52-.31,1-.61,1.6-.89v0a60.78,60.78,0,0,0,1.82,12.79,8.69,8.69,0,0,1-1.72-.73l-.18-.1A.48.48,0,0,0,385,194.32ZM386,183a.45.45,0,0,0-.18-.36c.35-.16.7-.3,1.06-.43l.21-.07,0,.28a.54.54,0,0,0,.14.44,121.85,121.85,0,0,0,2.37,13.28,7.16,7.16,0,0,1-1.73,0,.49.49,0,0,0,0-.27A58.59,58.59,0,0,1,386,183Zm4.69,13a.52.52,0,0,0-.12-.17,119,119,0,0,1-2.4-13.79.62.62,0,0,0-.07-.19c.71-.21,1.43-.39,2.15-.54A71.83,71.83,0,0,0,393,194.61a.43.43,0,0,0,.32.32c-.26.14-.52.26-.78.38A11.69,11.69,0,0,1,390.7,195.92Zm3.27-1.66A71,71,0,0,1,391.3,181c.57-.09,1.13-.17,1.7-.23a.5.5,0,0,0-.16.56,92.61,92.61,0,0,1,2.87,12.19c-.59.37-1.18.72-1.76,1A.53.53,0,0,0,394,194.26Zm-15.09,67.31a178.72,178.72,0,0,0-3.45-30.94.51.51,0,0,0-.11-.22l.61-.08a3.07,3.07,0,0,1,.42.28.51.51,0,0,0-.13.86c1.51,1.2,1.29,5.68,1.53,7.49l1.05,7.76q1,7.35,2,14.69C380.15,261.48,379.52,261.53,378.88,261.57Zm4.49-1.27c.06.35.5.69.83.4a1.58,1.58,0,0,0,.74-1.22.52.52,0,0,0-.69-.59q-.48-3.56-.73-7.14a15.07,15.07,0,0,0,3,2.18.52.52,0,0,0-.53.55c.06,1.94.13,3.89.2,5.83v.17c-1.43.33-2.88.6-4.33.8l-2.07-15.4c.11.34.24.69.38,1a14.68,14.68,0,0,0,2.27,3.65s0,.06,0,.1Q382.66,255.51,383.37,260.3Zm8.37-4.18a15.21,15.21,0,0,1,.9,2.72l-2,.53a8.64,8.64,0,0,1-.58-1.85,14.41,14.41,0,0,0-.18-1.75.74.74,0,0,0-1.44,0,.47.47,0,0,0,.42.6.26.26,0,0,0,0,.11c0,.18,0,.37,0,.55s.09.6.15.89a9.09,9.09,0,0,0,.54,1.7c-.8.21-1.6.41-2.41.6V260l-.06-1.95c0-1.2-.09-2.41-.13-3.61a.51.51,0,0,0-.05-.22,14,14,0,0,0,1.68.74,15.15,15.15,0,0,0,3.16.74A.43.43,0,0,0,391.74,256.12Zm-13-17.78c-.11-.86-.23-1.71-.34-2.57-.06-.46-.09-1-.13-1.46,0,.09,0,.18.05.27A26.54,26.54,0,0,1,378.73,238.34Zm14.93,20.23a15.39,15.39,0,0,0-.92-2.81h0q1,.08,2,.06a8.57,8.57,0,0,0,.5,2.35h0Zm4.44-3,.27,1.91c-.69.14-1.38.3-2.07.46a8.19,8.19,0,0,1-.47-2.14C396.59,255.72,397.34,255.64,398.1,255.54Zm1.31,1.71-.27-1.87,1.08-.2v0a11.49,11.49,0,0,0,.18,1.86Zm1.86-2.1a.58.58,0,0,0,0-.19c.52-.11,1-.24,1.53-.37v0l.74,1.92a.29.29,0,0,0,.07.12q-1.08.09-2.13.24A11.53,11.53,0,0,1,401.27,255.15Zm3.21,1.45a.46.46,0,0,0,0-.4c-.24-.64-.48-1.28-.73-1.93a9.86,9.86,0,0,0,1.73-.83l.95,3.06Zm8.14-.72a20.77,20.77,0,0,1-2.19.35l-1.35-4.29c-.2-.65-1.2-.29-1,.36l1.26,4c-.6.05-1.21.08-1.82.11l-1.13-3.64a20.22,20.22,0,0,0,4.47-5.15A53.67,53.67,0,0,0,412.62,255.88Zm-.38-22.62c.15,3.52.14,7.08.34,10.61a.42.42,0,0,0-.58.15c-1.39,2-2.69,4.24-4.27,6.15-2.35,2.84-5.24,3.5-8.72,4-6.17.93-12.19.43-16.25-4.87-3.54-4.62-2.3-10.2-3.51-15.5-.62-2.69-3-6-5.87-4.41q-.54-17.79-1.68-35.56h.14l.93-.22a.42.42,0,0,0,.3-.24,10.92,10.92,0,0,1,1.31-.33,1.33,1.33,0,0,0,.39.65.54.54,0,0,0,.53.1l.12-.06a.6.6,0,0,0,.22-.85c.35,0,.71,0,1.07,0a1.11,1.11,0,0,0,.61.74.53.53,0,0,0,.74-.6c.3.06.6.12.9.2a.76.76,0,0,0,0,.15.53.53,0,0,0,1,.16,13.37,13.37,0,0,1,2.42,1.16c2.46,1.48,4.52,2.84,7.44,2.48.06.27.13.54.19.81.15.57,1.14.37,1-.22l-.14-.8a21.33,21.33,0,0,0,5.4-2.74.48.48,0,0,0,.47-.29l1.11-.7a.49.49,0,0,0,.69.11c.51-.35.58-.44.71-1,.43-.24.86-.47,1.29-.67a.57.57,0,0,0,.81-.37,8.33,8.33,0,0,1,3.66-.74c0,.17,0,.35.07.52.08.68,1.14.61,1.05-.07l0-.28a5.63,5.63,0,0,1,1.39.56.78.78,0,0,1,0,.14.55.55,0,0,0,.81.41l.18.12a.47.47,0,0,0,.41.11c.91,8.27,1.7,16.56,2.31,24.86Q411.87,225.11,412.24,233.26Zm35.88-34a14.43,14.43,0,0,0,0,2l-1.12-.38a.55.55,0,0,0,.52-.54,29.65,29.65,0,0,1,.46-4.79l.79,0,0,.06a.49.49,0,0,0,.16.48c-.08.41-.35,1-.41,1.23A17,17,0,0,0,448.12,199.23Zm-1.26-3.71a31.31,31.31,0,0,0-.44,4.83.44.44,0,0,0,.13.33l-.83-.28a26.1,26.1,0,0,0,.14-4.24.53.53,0,0,0-1.05.07,26,26,0,0,1-.11,3.85l-1-.28a7.05,7.05,0,0,1,0-2c.07-.47.39-1.08.26-1.55a.63.63,0,0,0-1.25.21.53.53,0,0,0,.15.32c-.06.21-.14.5-.15.55a6.32,6.32,0,0,0-.11.86,8.19,8.19,0,0,0,0,1.31l-1-.25A.53.53,0,0,0,441,199c.07-1.2.15-2.41.22-3.61a.34.34,0,0,0,0-.14A45.77,45.77,0,0,0,446.86,195.52Zm27.92,8.33c0,.25-.7.44-1.74.6l.58-5.74c.07-.68-1-.89-1-.21-.2,2-.41,4.05-.61,6.08-.52.06-1.07.1-1.62.14a30.15,30.15,0,0,1,1.54-7.79c.22-.64-.83-.84-1-.2a30.52,30.52,0,0,0-1.56,8.06l-1.18.06a78.6,78.6,0,0,1,.95-8.25c.11-.67-.93-.88-1-.21a83.74,83.74,0,0,0-1,8.5l-.82,0q.13-4.09.58-8.18c.07-.68-1-.89-1-.21-.31,2.78-.5,5.57-.6,8.37-.6,0-1.2-.06-1.8-.11a.5.5,0,0,0,.5-.54,28.42,28.42,0,0,1,.83-8.57c.16-.66-.88-.87-1-.21a29.65,29.65,0,0,0-.85,8.85.48.48,0,0,0,.36.46c-.62-.05-1.23-.12-1.85-.19a.42.42,0,0,0,.35-.4c.26-2.79.53-5.59.8-8.38.06-.67-1-.89-1-.21-.27,2.79-.53,5.59-.8,8.38a.54.54,0,0,0,.35.57c-.66-.09-1.33-.19-2-.3-1-1.08,1.58-7.65,1.91-8.35a.53.53,0,0,0-.95-.47,22.24,22.24,0,0,0-2.06,7,6.7,6.7,0,0,0-.05,1.62l-.67-.13a30.16,30.16,0,0,1,1.28-7.82c.2-.65-.84-.85-1-.21a31.51,31.51,0,0,0-1.3,7.81l-.78-.19s0,0,0-.06a16.88,16.88,0,0,1,1.34-7.59c.27-.63-.68-1.09-.95-.47a18.25,18.25,0,0,0-1.46,7.85l-.68-.2a.63.63,0,0,0,0-.27c-.65-2.32.9-4.65,1.16-6.93.08-.68-1-.89-1-.21-.27,2.42-1.68,4.63-1.21,7.08l-.39-.12a.43.43,0,0,0-.54-.44c-.22,0,.16-2.67.19-3,.14-1,.27-2,.41-3,.09-.67-1-.88-1-.21-.25,1.89-.69,3.85-.76,5.75,0,.1,0,.2,0,.3l-1.21-.42a13.42,13.42,0,0,1,.18-3.4c.14-.77.82-2,.55-2.77,8.34-.41,16.76-1.71,24.5,2a.51.51,0,0,0,.72-.34c0,.82.06,1.63.08,2.44,0,1.27.05,2.54.06,3.8A.49.49,0,0,0,474.78,203.85Zm8.84,135.85-.09.91c-.28,0-.56-.06-.82-.08a6.43,6.43,0,0,1,.08-1.58c.31.18.63.35.95.51A.46.46,0,0,0,483.62,339.7Zm-6,1c-.47,0-.93.06-1.4.07a53.9,53.9,0,0,0,0-7.73c.51.65,1,1.29,1.56,1.9v0ZM472.59,329l.36.31a.47.47,0,0,0,0,.24c.18,3.5.24,7,.2,10.49a.53.53,0,0,0-.14.46c-.49-.09-1-.18-1.44-.3,0,0,0,0,0-.05a98.86,98.86,0,0,0-.4-12.17C471.64,328.32,472.12,328.66,472.59,329Zm-3.44,10.21c.61-1.51.08-3.78,0-5.38-.14-2.43-.34-4.87-.58-7.3.58.28,1.14.58,1.69.9a.45.45,0,0,0-.18.43,99.23,99.23,0,0,1,.41,12.07c-.52-.15-1-.32-1.56-.49A.47.47,0,0,0,469.15,339.23Zm-4.27-9.86-1.44-.86a40.3,40.3,0,0,0-.38-4.1l1.52.5a.46.46,0,0,0-.07.36A21.71,21.71,0,0,1,464.88,329.37Zm-.08,1.84c.28,2.32.45,4.64.54,7l-1.85-.67a41.8,41.8,0,0,0-.09-6.13Zm-4.87-5L458.39,325c0-.43.09-.85.13-1.27a.46.46,0,0,0,.08-.27c0-.12,0-.24,0-.35l1.22.33a.58.58,0,0,0-.17.53A12.26,12.26,0,0,1,459.93,326.17Zm-4.93-4,2.55.68c-.05.47-.09.93-.14,1.39C456.59,323.56,455.78,322.87,455,322.16Zm6,4.75,0-.14a14.52,14.52,0,0,0-.33-3.08l1.38.4a.49.49,0,0,0-.06.3c.17,1.14.29,2.29.36,3.44C461.88,327.53,461.42,327.22,461,326.91Zm-.85,9.53-1.07-.29a29.57,29.57,0,0,1-.22-4.1.45.45,0,0,0-.12-.32l1.09,0a.43.43,0,0,0,0,.12Zm-2.17-.56c-.65-.14-1.3-.25-2-.35l-.26-3.6a.52.52,0,0,0-.07-.23c.77,0,1.53,0,2.29,0a.57.57,0,0,0-.17.4A31.29,31.29,0,0,0,458,335.88ZM449,331l1.12.16a.47.47,0,0,0-.1.33l.25,3.51c-.37,0-.75-.1-1.12-.16,0,0,0-.06,0-.1l-.12-3.52A.48.48,0,0,0,449,331Zm2,.3,1.48.19c.08,1.25.16,2.51.25,3.76l-1.42-.13-.27-3.7A.42.42,0,0,0,451,331.26Zm-5.34,2.64a10.58,10.58,0,0,1-1.23-.57,9.12,9.12,0,0,0-.08-2.81l1.26.06s0,.08,0,.12A17.11,17.11,0,0,1,445.7,333.9Zm-4.14-3.25a17.36,17.36,0,0,1,1.76-.13,7.48,7.48,0,0,1,.16,2.16A8.12,8.12,0,0,1,441.56,330.65Zm5.17,3.61a18.72,18.72,0,0,0,0-3.59c.49.05,1,.11,1.46.18a.52.52,0,0,0-.17.4c0,1.12.08,2.24.11,3.36C447.64,334.51,447.18,334.39,446.73,334.26Zm7.1,1-.24-3.74.66.06.53,0a.45.45,0,0,0-.12.35l.25,3.4-.24,0Zm7.37,1.46-.36-5a.29.29,0,0,0,0-.11l1.54-.13a42.78,42.78,0,0,1,.1,5.66Zm5.21,1.82q-.11-3.78-.56-7.53h0a.53.53,0,0,0,.2-1l-.17-.09a22.3,22.3,0,0,0-.33-4.68c.65.25,1.29.51,1.92.79a.4.4,0,0,0,0,.22c.1,1,.86,12.2,1,12.19a.5.5,0,0,0-.44.68l-.77-.28Zm7.75,2.1c0-3.45,0-6.91-.16-10.36.55.57,1.07,1.18,1.57,1.81a.47.47,0,0,0-.36.51,52.41,52.41,0,0,1,0,8.12c-.28,0-.56,0-.85-.05Zm4.55-.07c.05-1.53.1-3.07.16-4.61.07.07.13.15.21.22.3.27.6.54.91.79a.46.46,0,0,0-.18.32,15.42,15.42,0,0,0-.08,3,.43.43,0,0,0,.09.24Zm2-.12a.5.5,0,0,0,.06-.28,14.37,14.37,0,0,1,0-2.54c.34.25.69.49,1,.71a.64.64,0,0,0-.1.22,7.37,7.37,0,0,0-.13,1.87h-.4Zm3.84.31.09-.89c.41.19.83.37,1.25.53l.38,1A6.53,6.53,0,0,0,484.57,340.8Zm-.55,8.63c.72-.1.71.87.67,1.39l-1.95.21a3.14,3.14,0,0,0-.65-1.84c-.42-.54-1.29.06-.87.6a2.19,2.19,0,0,1,.46,1.33v0l-1.19.11a9.44,9.44,0,0,0-.31-2.3.67.67,0,0,0-.08-.17l3.45.42A.42.42,0,0,0,484,349.43Zm-13.5-1.6a.62.62,0,0,0,0-.2l1.35.16c.19,1.38.3,2.77.36,4.16l-1.45.11A11,11,0,0,1,470.52,347.83Zm2.41.09,2.33.28a.53.53,0,0,0-.28.46,8.91,8.91,0,0,0,.15,3.06l-1.87.15C473.21,350.55,473.1,349.23,472.93,347.92Zm3.1,3.23a.13.13,0,0,0,0,0v-.16a5.62,5.62,0,0,1,0-.82l0-1.53a.48.48,0,0,0-.11-.31l1.06.13a.47.47,0,0,0-.13.4l.33,2.74-.67.06A.49.49,0,0,0,476,351.15Zm1.89-2.42a.71.71,0,0,0-.07-.22l1.58.19a.54.54,0,0,0-.25.61,7.81,7.81,0,0,1,.25,2l-1.18.11Zm-13.1-1.17-.05,5-.39,0a.59.59,0,0,0-.43-.34c0-1.76,0-3.53-.07-5.3a.29.29,0,0,0,0-.09l1.51.18A.55.55,0,0,0,464.82,347.56Zm-4.41-.81c.3.1.26,2.26.28,2.52.07.94.14,1.88.22,2.82,0,0,0,0,0,.05a16,16,0,0,0-1.82-.28,40.54,40.54,0,0,1-1-5.59.28.28,0,0,0,0-.13l2,.24A.4.4,0,0,0,460.41,346.75Zm-11-1.75a.44.44,0,0,0-.06.31l1.05,6.34a12,12,0,0,1-1.68-.29,27.06,27.06,0,0,0-1-6.25A8.33,8.33,0,0,1,449.38,345Zm-1.92,6c-2.38-1-3.78-4.38-.78-5.57a25.67,25.67,0,0,1,.93,5.63Zm4,.77-1.08-6.5a.75.75,0,0,0-.07-.18c1.8.15,3.68.59,5.19.78l1.68.2a.45.45,0,0,0-.09.32,41.57,41.57,0,0,0,.91,5.43c-.53,0-1.06,0-1.6,0a.55.55,0,0,0,0-.18,23.33,23.33,0,0,1-.92-5.11.53.53,0,0,0-1.06.08,24.87,24.87,0,0,0,.93,5.21l-1.66,0c-.25-1.94-.51-3.89-.76-5.84-.09-.67-1.15-.6-1.06.08l.75,5.76-.71,0Zm10.38.65A.5.5,0,0,0,462,352c-.1-1.37-.2-2.75-.31-4.12a7,7,0,0,0-.13-1.34l1.38.17a.61.61,0,0,0-.08.28c.05,1.91.07,3.83.08,5.75A8.33,8.33,0,0,0,461.84,352.38Zm4,.06c0-1.65,0-3.3,0-5a.44.44,0,0,0-.31-.45l3.95.48a.45.45,0,0,0,0,.11,12.48,12.48,0,0,0,.2,4.52l-1.71.14c-.06-1.41-.12-2.82-.17-4.23,0-.68-1.09-.6-1.06.08.06,1.41.11,2.82.17,4.23Zm86.46,9.48c-.86-1.25-1.72-2.48-2.6-3.7l.46-.37c.48.69,1,1.38,1.43,2.06a4.36,4.36,0,0,0,1,1.3C552.48,361.45,552.38,361.68,552.29,361.92Zm-1.55,4.35a21.85,21.85,0,0,1-3.61-4.82c.17-.34.37-.66.57-1a36,36,0,0,0,3.44,4.6C551,365.47,550.87,365.87,550.74,366.27Zm-.86,2.78-3.14-3.75a.51.51,0,0,0-.55-.18,9,9,0,0,1,.41-2.46,22.83,22.83,0,0,0,3.78,4.76C550.21,368,550,368.51,549.88,369.05Zm-1.7,6.15-.91-1.49a5.69,5.69,0,0,1-1.19-2.72.48.48,0,0,0-.14-.32,5.59,5.59,0,0,0,.12-.56l2.43,3.93C548.38,374.42,548.28,374.81,548.18,375.2Zm.69-2.56-2.68-4.31c0-.69,0-1.38,0-2.07q1.59,1.89,3.16,3.79a.62.62,0,0,0,.22.15C549.31,371,549.09,371.82,548.87,372.64Zm4.28-12.81c-.06.12-.1.24-.15.36-.11-.2-.36-.61-.39-.65l-.54-.77L551,357.24c.28-.18.57-.33.86-.48a.3.3,0,0,0,.06.11c.55.71,1.06,1.44,1.56,2.19C553.38,359.31,553.26,359.57,553.15,359.83Zm-.31-3.51a11.43,11.43,0,0,1,2.24-.62q-.55,1.11-1.08,2.22C553.63,357.38,553.24,356.84,552.84,356.32ZM548.91,359c1,1.37,2,2.76,2.92,4.17-.09.26-.19.52-.29.79a36.2,36.2,0,0,1-3.11-4.28l-.07-.07C548.54,359.36,548.72,359.15,548.91,359Zm-2.27,21.93q-1.56-3.08-3.31-6c.32-.32.64-.66.93-1a52,52,0,0,1,2.93,5.06C547,379.56,546.83,380.23,546.64,380.89Zm-.83,2.89-4.26-7.25,0,0,1-.89q1.83,3.08,3.43,6.28a.54.54,0,0,0,.31.27C546.13,382.7,546,383.24,545.81,383.78Zm-5.09-6.59q2.32,4,4.67,8c-.18.58-.36,1.15-.56,1.72q-2.8-4.1-5.3-8.38a.49.49,0,0,0-.13-.15l.39-.34Zm2.94,12.93a80.39,80.39,0,0,0-5.88-9.63c-.41-.54-1.29.05-.87.6a91,91,0,0,1,6.26,10.29c-.32.8-.67,1.58-1,2.37q-3.58-5.81-7-11.71a.42.42,0,0,0-.31-.24,35.38,35.38,0,0,0,3.77-2.8.32.32,0,0,0,0,.09c1.79,3.09,3.7,6.09,5.74,9C544.17,388.79,543.92,389.45,543.66,390.12Zm-29.93-.93s0,0,0,.06q8.54,11.72,16.37,23.91L528.77,415l-.36-.92a.52.52,0,0,0-.67-.3c-3.25-4.6-6.48-9.21-9.77-13.77a77.09,77.09,0,0,0-5.14-6.52,8.16,8.16,0,0,0-2.56-2.39l.52-.29C511.76,390.26,512.74,389.72,513.73,389.19Zm-8.13,4.7-.05-.06c1.15-.67,2.31-1.33,3.47-2a.49.49,0,0,0,.33.12c1.35,0,2.79,2.32,3.52,3.18s1.56,1.9,2.3,2.88c1.31,1.71,2.55,3.47,3.8,5.23q4.53,6.38,9,12.77-1.35,1.82-2.73,3.62Zm-5.43,3.55q11.52,12.15,21.76,25.37a.57.57,0,0,0,.23.67l.1.07-3,3.88-21.63-28.66a.61.61,0,0,0-.26-.19L500,397A.57.57,0,0,0,500.17,397.44Zm15.89,34.19Q505.37,416,493.68,401.19a.52.52,0,0,0-.42-.21l3.4-2a.44.44,0,0,0,.1.37q10.46,13.88,20.92,27.73a.51.51,0,0,0,.13.59l.74.67Q517.29,430,516.06,431.63Zm-64-2.4q5.94,10,11.58,20.18,2.7,4.9,5.33,9.85,1.44,2.7,2.85,5.41l1.4,2.71a19,19,0,0,0,1.2,1.86.53.53,0,0,0-.35.35.73.73,0,0,0,.06.78,36.56,36.56,0,0,1-4.3-.4.47.47,0,0,0-.06-.34l-11.32-20.17-5.66-10.09c-1-1.7-1.79-4.46-3.76-5.24A33.71,33.71,0,0,1,452.09,429.23Zm8,37.53c-4.42-9.34-8.77-18.7-12.82-28.2a30.34,30.34,0,0,1,1.36-3.49h0c1.37.41,2.22,2.9,2.82,4,.86,1.53,1.71,3.06,2.57,4.58l4.89,8.72,9.31,16.58a.38.38,0,0,0,0,.1l.43.74a33.75,33.75,0,0,1-8.56-2.83A.39.39,0,0,0,460.06,466.76Zm-13.28-26.61c3.75,8.72,7.74,17.33,11.79,25.92l-.07,0a31.7,31.7,0,0,1-4.66-3.18C446.4,456.8,444.7,448.25,446.78,440.15Zm8.55-14.43q6.3,10.8,12.35,21.74,3,5.37,5.86,10.76,1.45,2.68,2.89,5.4c.22.42,2.1,3.94,3.12,5.56a.42.42,0,0,0-.17.1l-.11.1a.54.54,0,0,0,0,.65.76.76,0,0,0,.08.11,32.88,32.88,0,0,1-4,.24c.88-1.26-1.71-4.51-2.17-5.41q-3.17-6.11-6.45-12.14-6.69-12.3-13.85-24.33a.89.89,0,0,0-.13-.14c.54-.68,1.11-1.35,1.71-2l.8-.84A.6.6,0,0,0,455.33,425.72ZM495,462.14a.56.56,0,0,0-.06-.21q-12.82-23.37-27-46a.43.43,0,0,0-.09-.1l3-1.83,0,.05a353.06,353.06,0,0,1,26.88,42.06.53.53,0,0,0-.05.82l.3.29Q496.45,459.68,495,462.14Zm13.85-21.28a.45.45,0,0,0-.29-.23A383.83,383.83,0,0,0,484.46,407c-.42-.53-1.3.06-.87.6a386.39,386.39,0,0,1,24.67,34.52c-3.26,4.52-6.43,9.09-9.44,13.78a351.89,351.89,0,0,0-27.09-42.45q2.73-1.62,5.48-3.21a.51.51,0,0,0,.07.15Q490.62,428.88,503,448c.37.57,1.24,0,.87-.6-.24-.37-.48-.75-.71-1.13l-.06-.05q-12-18.54-24.91-36.43l-.06-.06q6.14-3.57,12.29-7.11l2.38-1.39a.44.44,0,0,0,.05.52q11.06,14.06,21.23,28.77a.3.3,0,0,0,0,.1l1.31,1.86-2.46,3.28c-.12-.19-.28-.39-.43-.62-1-1.47-2.11-2.87-3.2-4.26-2.28-2.91-4.68-5.74-7-8.6-4.76-5.75-9.39-11.64-12.69-18.38-.3-.6-1.3-.26-1,.36a86.42,86.42,0,0,0,10.84,16.22c2.06,2.53,4.17,5,6.23,7.54.51.61,4.82,6.11,6.54,8.16l-.1.07-.1.09a.54.54,0,0,0,0,.65l0,.05q-1.5,2-3,4.07Zm14.22-18.33q-10.44-13.5-22.18-25.89l-.07-.05,3.85-2.24a1,1,0,0,0,.08.14l19.44,25.43a.51.51,0,0,0-.06.82l.19.17Zm-8.39-33.82a38.1,38.1,0,0,1,5.87-2.45c.66-.2,1.33-.36,2-.52a.54.54,0,0,0,.07.34q6.33,9.76,12.3,19.76a.49.49,0,0,0,0,.41c-.55.83-1.1,1.66-1.67,2.48q-6.51-11-14.07-21.39c-.4-.55-1.28,0-.87.6q7.39,10.14,13.81,20.95a.45.45,0,0,0,0,.55c.16.21.24.33.32.42-.55.8-1.12,1.59-1.69,2.38Q523.07,400.26,514.66,388.71Zm21,16.39q-5.93-9.89-12.18-19.57c1.21-.24,2.43-.45,3.63-.7a.5.5,0,0,0,0,.13,156.15,156.15,0,0,0,9.67,18.32C536.46,403.89,536.08,404.5,535.69,405.1Zm1.94-3.09c-.08-.18-.16-.36-.23-.54a.5.5,0,0,0-.58-.31,144.58,144.58,0,0,1-8.65-16.55h0a21.85,21.85,0,0,0,2.73-.8.55.55,0,0,0,.53,0c-.65.35,6.88,11.37,8.4,14.43C539.12,399.5,538.38,400.76,537.63,402Zm2.81-4.92c-.35-.56-.77-1.11-1.08-1.61l-2.94-4.85-2.67-4.41a21.08,21.08,0,0,0-1.71-2.9,20.48,20.48,0,0,0,2.23-1.16.5.5,0,0,0,0,.47q3.53,6.19,7.29,12.24c-.14.29-.27.57-.41.85C540.94,396.18,540.69,396.63,540.44,397.09Zm4.5-24.15q.19-.3.36-.6a8.94,8.94,0,0,0,.66,1.26l1.84,3-.21.78A51.15,51.15,0,0,0,544.94,372.94Zm53.61-76.66a18.51,18.51,0,0,1,2.44,8.77c-1.35-2-2.65-4.05-3.88-6.13a.38.38,0,0,0-.12-.13,16.14,16.14,0,0,0,1.33-2.89Zm-12,13.28a34.35,34.35,0,0,1,2,5q1,2.63,2.05,5.25c-.84.51-1.68,1-2.53,1.5a38.94,38.94,0,0,1-2.37-6.89c-.2-.85-.16-2.54-1.28-2.67C585.12,311,585.84,310.25,586.59,309.56Zm-5.31,6.55a17.36,17.36,0,0,0,2.43,7.79c-1.2.77-2.38,1.58-3.54,2.41C580,322.71,579.64,319.42,581.28,316.11Zm3.33,7.22a16.25,16.25,0,0,1-2.32-8.14.46.46,0,0,0-.25-.41,21,21,0,0,1,1.79-2.39.53.53,0,0,0,.51.37c-.08,0,1,4.17,1.07,4.52a40.74,40.74,0,0,0,1.75,4.53C586.3,322.31,585.44,322.81,584.61,323.33Zm7.1-4.25c0-.07-.07-.16-.13-.27a.51.51,0,0,0-.32-.28q-1-2.59-2-5.19a26.77,26.77,0,0,0-1.85-4.5l1.44-1.28.43-.37q2.52,5.1,4.67,10.36Q592.85,318.36,591.71,319.08Zm-1.56-12.46a.6.6,0,0,0-.09-.13l1.54-1.39,5,8.83a.51.51,0,0,0,.14.58l.31.29a22.4,22.4,0,0,1-2.28,2.08C593.37,313.41,591.83,310,590.15,306.62Zm7.7,7.31-5.46-9.57c.75-.72,1.47-1.45,2.15-2.22a77.41,77.41,0,0,1,4.3,6.58c.34.59,1.21,0,.87-.6a78.39,78.39,0,0,0-4.47-6.82,18.53,18.53,0,0,0,1.14-1.54q2.14,3.6,4.53,7.05A13.41,13.41,0,0,1,597.85,313.93Z" transform="translate(-239.96 -77.85)" class="hand"></path><path d="M381.31,381.44l4.09-22.32h8.5l-7.55,35.6h-8.9l-4.77-20.29L368,394.72h-8.87l-7.58-35.6h8.53l4.09,22.32,4.88-22.32h7.29Z" transform="translate(-239.96 -77.85)" class="text"></path><path d="M427.4,377.66a21.06,21.06,0,0,1-1.93,9.21A14.24,14.24,0,0,1,420,393a15.24,15.24,0,0,1-8.11,2.17,15.55,15.55,0,0,1-8.07-2.09,14.32,14.32,0,0,1-5.48-6,20.32,20.32,0,0,1-2.07-8.92v-2a21.12,21.12,0,0,1,1.92-9.23,14.24,14.24,0,0,1,5.5-6.17,15.41,15.41,0,0,1,8.15-2.18,15.18,15.18,0,0,1,8.07,2.16,14.45,14.45,0,0,1,5.51,6.12,20.42,20.42,0,0,1,2,9.11Zm-8.73-1.5c0-3.53-.59-6.22-1.77-8.05a5.69,5.69,0,0,0-5.08-2.75q-6.45,0-6.82,9.68l0,2.62q0,5.22,1.73,8a5.69,5.69,0,0,0,5.16,2.81,5.6,5.6,0,0,0,5-2.76c1.18-1.84,1.77-4.49,1.79-7.95Z" transform="translate(-239.96 -77.85)" class="text"></path><path d="M445.05,382.13H440.4v12.59h-8.58v-35.6h14q6.33,0,9.9,2.81a9.52,9.52,0,0,1,3.57,7.94,11.55,11.55,0,0,1-1.5,6.15,10.7,10.7,0,0,1-4.71,4l7.43,14.37v.37h-9.19Zm-4.65-6.6h5.43a4.86,4.86,0,0,0,3.68-1.29,5.86,5.86,0,0,0,0-7.2,4.82,4.82,0,0,0-3.67-1.32H440.4Z" transform="translate(-239.96 -77.85)" class="text"></path><path d="M476.59,381.47l-3.53,3.86v9.39h-8.58v-35.6h8.58v15.7l3-4.52,7.67-11.18h10.61l-12,15.75,12,19.85H484.16Z" transform="translate(-239.96 -77.85)" class="text"></path><path d="M383.9,440.2H367.05l-2.94,9.52H351l18.71-51h11.56l18.84,51h-13.2ZM370,430.7h11L375.46,413Z" transform="translate(-239.96 -77.85)" class="text"></path><path d="M446.39,449.72H434.16L416.09,418v31.73h-12.3v-51h12.3l18,31.74V398.72h12.26Z" transform="translate(-239.96 -77.85)" class="text"></path><path d="M454.16,449.72v-51h16.43a24.16,24.16,0,0,1,12.15,3.07,21.54,21.54,0,0,1,8.43,8.65A26.07,26.07,0,0,1,494.23,423v2.35a26.2,26.2,0,0,1-3,12.56,21.62,21.62,0,0,1-8.33,8.68,23.64,23.64,0,0,1-12,3.17Zm12.3-41.5v32h4.27a9.58,9.58,0,0,0,8.13-3.77q2.83-3.76,2.83-11.19V423.1q0-7.38-2.83-11.14t-8.27-3.74Z" transform="translate(-239.96 -77.85)" class="text"></path><path d="M306.05,331.21V491.13h32.18v-6.26l-25.94,0V337.45H526.51V484.89H501.08c0,.08,0,6.23,0,6.23h31.63V331.21Z" transform="translate(-239.96 -77.85)" class="text"></path><path d="M397.59,483.16a30.92,30.92,0,0,1-2.85,13.59,20.9,20.9,0,0,1-8.09,9.09A22.45,22.45,0,0,1,374.71,509,22.78,22.78,0,0,1,362.82,506a21,21,0,0,1-8.09-8.81,30,30,0,0,1-3-13.15V481a31,31,0,0,1,2.83-13.6,20.93,20.93,0,0,1,8.1-9.1,24,24,0,0,1,23.91,0,21.36,21.36,0,0,1,8.12,9,30,30,0,0,1,2.94,13.42ZM384.73,481c0-5.22-.87-9.17-2.62-11.88a8.37,8.37,0,0,0-7.47-4q-9.51,0-10.05,14.27l0,3.85q0,7.71,2.56,11.86a8.36,8.36,0,0,0,7.6,4.14,8.27,8.27,0,0,0,7.39-4.07q2.59-4.06,2.63-11.71Z" transform="translate(-239.96 -77.85)" class="text"></path><path d="M445.26,455.85v34.34a19.74,19.74,0,0,1-2.49,10.11,16.08,16.08,0,0,1-7.13,6.5,25.12,25.12,0,0,1-11,2.23q-9.58,0-15.1-5t-5.62-13.62V455.85h12.72v34.84q.23,8.63,8,8.62a7.77,7.77,0,0,0,6-2.17q2-2.16,2-7V455.85Z" transform="translate(-239.96 -77.85)" class="text"></path><path d="M494.33,465.62H478.59v42.69H465.94V465.62H450.48v-9.77h43.85Z" transform="translate(-239.96 -77.85)" class="text"></path></svg>